<?xml version="1.0" encoding="UTF-8" standalone="no"?>
<!DOCTYPE svg PUBLIC "-//W3C//DTD SVG 1.1//EN" "http://www.w3.org/Graphics/SVG/1.1/DTD/svg11.dtd">
<svg width="100%" height="100%" viewBox="0 0 4000 4000" version="1.1" xmlns="http://www.w3.org/2000/svg" xmlns:xlink="http://www.w3.org/1999/xlink" xml:space="preserve" xmlns:serif="http://www.serif.com/" style="fill-rule:evenodd;clip-rule:evenodd;stroke-linejoin:round;stroke-miterlimit:2;">
    <g transform="matrix(1.40845,0,0,1.40845,-724.607,-795.071)">
        <path d="M764.837,2554.09C725.128,2574.58 697.945,2616.01 697.945,2663.75C697.945,2731.8 753.198,2787.06 821.255,2787.06C868.54,2787.06 909.645,2760.39 930.332,2721.28C951.018,2760.39 992.123,2787.06 1039.41,2787.06C1107.46,2787.06 1162.72,2731.8 1162.72,2663.75C1162.72,2614.13 1133.35,2571.32 1091.05,2551.76L1091.05,1606.04C1091.05,1596.24 1094.97,1586.84 1101.93,1579.94C1108.89,1573.03 1118.32,1569.2 1128.12,1569.28C1215.28,1570.01 1344.6,1571.08 1405.29,1571.59C1411.33,1571.64 1417.02,1574.45 1420.72,1579.21C1488.35,1666.17 1705.06,1944.85 1824.06,2097.87C1852.7,2134.71 1896.86,2156.12 1943.53,2155.78C1990.19,2155.45 2034.04,2133.42 2062.16,2096.17C2176.09,1945.27 2381.05,1673.8 2450.61,1581.66C2456.22,1574.23 2464.99,1569.84 2474.3,1569.81C2536.68,1569.59 2659.54,1569.16 2744.88,1568.86C2755.91,1568.82 2766.51,1573.18 2774.31,1580.99C2782.11,1588.79 2786.47,1599.39 2786.43,1610.42L2782.63,2553.19C2741.96,2573.35 2713.96,2615.31 2713.96,2663.75C2713.96,2731.8 2769.22,2787.06 2837.27,2787.06C2884.56,2787.06 2925.66,2760.39 2946.35,2721.28C2967.03,2760.39 3008.14,2787.06 3055.43,2787.06C3123.48,2787.06 3178.74,2731.8 3178.74,2663.75C3178.74,2613.5 3148.61,2570.22 3105.45,2551.03L3105.45,1490.11C3105.45,1356.51 2997.15,1248.21 2863.55,1248.21L2375.84,1248.21C2308.51,1248.21 2245.32,1280.73 2206.18,1335.53C2206.18,1335.53 1934.85,1715.43 1934.85,1715.43C1934.85,1715.43 1617.29,1309.31 1617.29,1309.31C1587.13,1270.75 1540.91,1248.21 1491.95,1248.21L1000.14,1248.21C870.187,1248.21 764.837,1353.56 764.837,1483.52L764.837,2554.09ZM2837.27,2590.44C2877.73,2590.44 2910.58,2623.29 2910.58,2663.75C2910.58,2704.21 2877.73,2737.06 2837.27,2737.06C2796.81,2737.06 2763.96,2704.21 2763.96,2663.75C2763.96,2623.29 2796.81,2590.44 2837.27,2590.44ZM821.255,2590.44C861.715,2590.44 894.564,2623.29 894.564,2663.75C894.564,2704.21 861.715,2737.06 821.255,2737.06C780.794,2737.06 747.945,2704.21 747.945,2663.75C747.945,2623.29 780.794,2590.44 821.255,2590.44ZM3055.43,2590.44C3095.89,2590.44 3128.74,2623.29 3128.74,2663.75C3128.74,2704.21 3095.89,2737.06 3055.43,2737.06C3014.97,2737.06 2982.12,2704.21 2982.12,2663.75C2982.12,2623.29 3014.97,2590.44 3055.43,2590.44ZM1039.41,2590.44C1079.87,2590.44 1112.72,2623.29 1112.72,2663.75C1112.72,2704.21 1079.87,2737.06 1039.41,2737.06C998.948,2737.06 966.099,2704.21 966.099,2663.75C966.099,2623.29 998.948,2590.44 1039.41,2590.44ZM3005.45,2551L3005.45,1490.11C3005.45,1411.74 2941.92,1348.21 2863.55,1348.21L2375.84,1348.21C2340.8,1348.21 2307.92,1365.13 2287.56,1393.65L1977.36,1827.98C1968.19,1840.81 1953.52,1848.57 1937.75,1848.91C1921.99,1849.25 1906.99,1842.14 1897.28,1829.72C1897.28,1829.72 1632.66,1491.31 1538.51,1370.91C1527.31,1356.58 1510.14,1348.21 1491.95,1348.21C1491.95,1348.21 1000.14,1348.21 1000.14,1348.21C925.415,1348.21 864.837,1408.79 864.837,1483.52L864.837,2548.37C893.06,2559.05 916.356,2579.8 930.332,2606.22C943.511,2581.3 964.978,2561.44 991.052,2550.3L991.052,1606.04C991.052,1569.57 1005.62,1534.61 1031.51,1508.93C1057.41,1483.25 1092.49,1468.98 1128.95,1469.28C1216.11,1470.01 1345.44,1471.09 1406.13,1471.59C1442.73,1471.9 1477.19,1488.93 1499.66,1517.83C1567.29,1604.79 1784,1883.47 1903,2036.49C1912.54,2048.76 1927.26,2055.9 1942.81,2055.79C1958.37,2055.68 1972.98,2048.33 1982.35,2035.92C2096.28,1885.02 2301.24,1613.54 2370.8,1521.4C2395.24,1489.04 2433.39,1469.95 2473.95,1469.81C2536.33,1469.59 2659.19,1469.16 2744.52,1468.86C2782.21,1468.72 2818.39,1483.64 2845.03,1510.3C2871.68,1536.95 2886.58,1573.14 2886.42,1610.83C2885.45,1852.23 2882.87,2423.18 2882.3,2548.93C2909.87,2559.77 2932.61,2580.25 2946.35,2606.22C2959.26,2581.82 2980.11,2562.26 3005.45,2551Z"/>
    </g>
</svg>
