<?xml version="1.0" encoding="UTF-8" standalone="no"?>
<!DOCTYPE svg PUBLIC "-//W3C//DTD SVG 1.1//EN" "http://www.w3.org/Graphics/SVG/1.1/DTD/svg11.dtd">
<svg width="100%" height="100%" viewBox="0 0 44 44" version="1.1" xmlns="http://www.w3.org/2000/svg" xmlns:xlink="http://www.w3.org/1999/xlink" xml:space="preserve" xmlns:serif="http://www.serif.com/" style="fill-rule:evenodd;clip-rule:evenodd;stroke-linejoin:round;stroke-miterlimit:2;">
    <g id="Logos">
        <g id="logo-AT-operational">
            <path id="Path" d="M44,22C44,34.151 34.15,44 21.999,44C9.85,44 0,34.151 0,22C0,9.85 9.85,0 21.999,0C34.15,0 44,9.85 44,22" style="fill:white;"/>
            <path id="Path1" serif:id="Path" d="M27.455,6.402C30.138,7.343 32.532,8.959 34.409,11.094L38.975,11.094C36.574,7.363 33.014,4.524 28.843,3.013L27.455,6.402Z" style="fill:rgb(238,46,39);"/>
            <path id="Path2" serif:id="Path" d="M13.553,40.328L14.943,36.94C17.148,37.986 19.559,38.528 22,38.525C23.913,38.525 25.75,38.197 27.458,37.598L28.846,40.986C26.65,41.777 24.334,42.181 22,42.18C19.083,42.183 16.201,41.551 13.553,40.328" style="fill:rgb(135,170,62);"/>
            <path id="Path3" serif:id="Path" d="M13.553,40.328L14.943,36.94C12.903,35.974 11.082,34.601 9.59,32.907L5.026,32.907C7.108,36.139 10.065,38.712 13.553,40.328" style="fill:rgb(66,143,191);"/>
            <path id="Combined-Shape" d="M22,1.82C24.333,1.818 26.649,2.222 28.844,3.013L27.456,6.402C25.748,5.804 23.913,5.476 22,5.476C12.873,5.476 5.476,12.874 5.476,22C5.475,23.61 5.709,25.212 6.172,26.754L11.392,13.941C11.944,12.992 13.035,12.86 13.323,12.843L17.294,12.843L24.801,31.158L21.023,31.158C19.979,31.157 19.042,30.516 18.663,29.544L17.96,27.828L11.13,27.828L9.772,31.159L4.022,31.163C2.618,28.413 1.821,25.301 1.821,22C1.821,10.856 10.855,1.82 22,1.82ZM14.549,19.44L12.964,23.329L16.13,23.329L14.549,19.44Z" style="fill:rgb(0,18,49);fill-rule:nonzero;"/>
            <path id="Path4" serif:id="Path" d="M39.977,12.837L26.274,12.837C25.963,12.859 24.692,13.016 24.206,14.214L22.927,17.343L27.023,17.343L24.016,24.609L26.703,31.159L32.413,17.343L37.857,17.343C38.291,18.821 38.525,20.382 38.525,21.999C38.525,29.213 33.903,35.343 27.459,37.598L28.847,40.986C36.62,38.181 42.181,30.741 42.181,22C42.181,18.7 41.383,15.588 39.977,12.837" style="fill:rgb(0,18,49);"/>
        </g>
    </g>
</svg>
