<?xml version="1.0" encoding="UTF-8" standalone="no"?>
<!DOCTYPE svg PUBLIC "-//W3C//DTD SVG 1.1//EN" "http://www.w3.org/Graphics/SVG/1.1/DTD/svg11.dtd">
<svg width="100%" height="100%" viewBox="0 0 258 224" version="1.1" xmlns="http://www.w3.org/2000/svg" xmlns:xlink="http://www.w3.org/1999/xlink" xml:space="preserve" xmlns:serif="http://www.serif.com/" style="fill-rule:evenodd;clip-rule:evenodd;stroke-linejoin:round;stroke-miterlimit:2;">
    <path d="M128.5,0.5C57.81,0.5 0.5,57.03 0.5,126.8C0.5,165.38 18.03,199.92 45.65,223.09L211.35,223.09C238.98,199.92 256.53,165.39 256.53,126.8C256.53,57.04 199.22,0.5 128.53,0.5L128.5,0.5Z" style="fill:rgb(255,212,3);fill-rule:nonzero;"/>
    <path d="M43.6,197.2L43.6,52L96.3,52L128.45,114.72L161.02,52L213.25,52L213.25,197.2L166.01,197.2L166.01,119.51L143.58,165.15L111.49,165.15L88.88,119.51L88.88,197.2L43.6,197.2Z" style="fill:white;fill-rule:nonzero;"/>
</svg>
