<?xml version="1.0" encoding="UTF-8" standalone="no"?>
<!DOCTYPE svg PUBLIC "-//W3C//DTD SVG 1.1//EN" "http://www.w3.org/Graphics/SVG/1.1/DTD/svg11.dtd">
<svg width="100%" height="100%" viewBox="0 0 500 500" version="1.1" xmlns="http://www.w3.org/2000/svg" xmlns:xlink="http://www.w3.org/1999/xlink" xml:space="preserve" xmlns:serif="http://www.serif.com/" style="fill-rule:evenodd;clip-rule:evenodd;stroke-linejoin:round;stroke-miterlimit:2;">
    <g transform="matrix(0.984025,0,0,0.984025,2.62017,4.00523)">
        <path d="M378.686,299.738L444.149,299.738C421.686,388.333 340.109,452.579 246.496,450.945C136.652,449.028 47.842,357.062 49.759,247.219C51.677,137.375 143.642,48.565 253.486,50.483C340.774,52.006 417.471,110.44 442.111,194.192L489.827,180.154C459.067,75.601 363.321,2.654 254.354,0.752C117.229,-1.642 2.422,109.226 0.029,246.351C-2.365,383.476 108.503,498.282 245.628,500.676C374.291,502.922 484.741,405.478 498.548,277.537L501.519,250L383.17,250C382.969,209.311 373.349,168.658 354.312,131.457L353.403,131.922L353.403,128.272L138.743,128.272L138.743,371.728L353.403,371.728L353.403,370.695L354.312,371.161C365.968,348.383 374.094,324.311 378.686,299.738ZM311.749,170.157L193.717,170.157L193.717,329.843L312.836,329.843C333.683,278.666 333.321,221.115 311.749,170.157Z" style="fill:rgb(0,159,255);"/>
    </g>
</svg>
