<?xml version="1.0" encoding="UTF-8" standalone="no"?>
<!DOCTYPE svg PUBLIC "-//W3C//DTD SVG 1.1//EN" "http://www.w3.org/Graphics/SVG/1.1/DTD/svg11.dtd">
<svg width="100%" height="100%" viewBox="0 0 912 912" version="1.1" xmlns="http://www.w3.org/2000/svg" xmlns:xlink="http://www.w3.org/1999/xlink" xml:space="preserve" xmlns:serif="http://www.serif.com/" style="fill-rule:evenodd;clip-rule:evenodd;stroke-linejoin:round;stroke-miterlimit:2;">
    <g transform="matrix(1,0,0,1,-44.3,-44.3)">
        <path d="M500,44.3C248.3,44.3 44.3,248.3 44.3,500C44.3,751.7 248.3,955.7 500,955.7C751.7,955.7 955.7,751.7 955.7,500C955.7,248.3 751.7,44.3 500,44.3ZM815.7,435.1L579.1,435.1L579.1,824.3L420.9,824.3L420.9,435.1L184.3,435.1L184.3,276.9L815.6,276.9L815.6,435.1L815.7,435.1Z" style="fill:white;fill-rule:nonzero;"/>
    </g>
    <g transform="matrix(1,0,0,1,-44.3,-44.3)">
        <path d="M184.3,435.1L420.9,435.1L420.9,824.4L579.1,824.4L579.1,435.1L815.7,435.1L815.7,276.9L184.3,276.9L184.3,435.1Z" style="fill-rule:nonzero;"/>
    </g>
</svg>
