<?xml version="1.0" encoding="UTF-8" standalone="no"?>
<!DOCTYPE svg PUBLIC "-//W3C//DTD SVG 1.1//EN" "http://www.w3.org/Graphics/SVG/1.1/DTD/svg11.dtd">
<svg width="100%" height="100%" viewBox="0 0 1800 1800" version="1.1" xmlns="http://www.w3.org/2000/svg" xmlns:xlink="http://www.w3.org/1999/xlink" xml:space="preserve" xmlns:serif="http://www.serif.com/" style="fill-rule:evenodd;clip-rule:evenodd;stroke-linejoin:round;stroke-miterlimit:2;">
    <g transform="matrix(41.1796,0,0,41.1796,16.3102,9.8753)">
        <path d="M42.751,20.871C42.9,24.911 41.888,28.911 39.837,32.395C35.942,39.032 28.94,42.94 21.312,42.917C16.944,42.903 13.43,39.321 13.459,34.953C13.489,30.821 16.753,27.374 20.877,27.119C21.257,27.086 22.412,27.015 23.964,27.189C27.346,27.569 32.511,28.339 34.959,27.662C40.315,26.182 42.013,23.217 42.456,20.846C42.488,20.674 42.746,20.694 42.751,20.871ZM13.915,8.016C17.478,10.108 18.832,14.658 16.991,18.357C16.831,18.702 16.315,19.739 15.387,20.997C13.367,23.733 10.117,27.823 9.479,30.28C8.082,35.66 9.802,38.61 11.633,40.181C11.768,40.295 11.621,40.508 11.465,40.424C7.892,38.532 4.934,35.656 2.942,32.137C-0.858,25.447 -0.742,17.428 3.093,10.835C5.288,7.058 10.148,5.805 13.915,8.016ZM21.612,0.315C29.306,0.37 36.192,4.479 39.987,11.097C42.159,14.886 40.813,19.722 37.016,21.879C33.423,23.92 28.805,22.816 26.522,19.372C26.304,19.06 25.664,18.096 25.038,16.664C23.678,13.546 21.763,8.686 19.952,6.904C15.992,3.007 12.576,3.019 10.302,3.821C10.135,3.881 10.024,3.645 10.174,3.552C13.599,1.404 17.569,0.281 21.612,0.315Z" style="fill:rgb(239,93,176);fill-rule:nonzero;"/>
    </g>
</svg>
