<?xml version="1.0" encoding="UTF-8" standalone="no"?>
<!DOCTYPE svg PUBLIC "-//W3C//DTD SVG 1.1//EN" "http://www.w3.org/Graphics/SVG/1.1/DTD/svg11.dtd">
<svg width="100%" height="100%" viewBox="0 0 323 71" version="1.1" xmlns="http://www.w3.org/2000/svg" xmlns:xlink="http://www.w3.org/1999/xlink" xml:space="preserve" xmlns:serif="http://www.serif.com/" style="fill-rule:evenodd;clip-rule:evenodd;stroke-linejoin:round;stroke-miterlimit:2;">
    <g id="g87728" transform="matrix(2.5,0,0,-2.5,130.975,70.342)">
        <path id="path87730" d="M0,0L0,1.396C-1.248,0.356 -2.889,-0.228 -4.61,-0.228C-6.609,-0.228 -8.302,0.408 -9.508,1.611C-10.986,3.09 -11.615,4.839 -11.615,7.459L-11.615,19.974L-6.029,19.974L-6.029,8.143C-6.029,5.101 -3.782,4.866 -3.093,4.866C-2.396,4.866 -0.115,5.101 -0.115,8.143L-0.115,19.974L5.471,19.974L5.471,0L0,0Z" style="fill:rgb(255,208,0);fill-rule:nonzero;"/>
    </g>
    <g id="g87732" transform="matrix(2.5,0,0,-2.5,245.427,34.6504)">
        <path id="path87734" d="M0,0C0.542,1.202 1.61,1.86 3.006,1.86C4.403,1.86 5.469,1.202 6.006,0.01C6.256,-0.576 6.368,-1.022 6.415,-1.663L-0.405,-1.663C-0.355,-1.022 -0.243,-0.58 0,0M3.458,-9.434C1.17,-9.384 -0.291,-7.973 -0.418,-5.694L11.949,-5.694L11.949,-3.166C11.949,2.774 8.438,6.612 3.006,6.612C-2.509,6.612 -5.933,2.616 -5.933,-3.81C-5.933,-13.682 0.767,-14.264 3.86,-14.264L30.55,-14.264C30.747,-12.67 30.902,-11.062 30.98,-9.434L3.458,-9.434Z" style="fill:rgb(255,208,0);fill-rule:nonzero;"/>
    </g>
    <g id="g87736" transform="matrix(2.5,0,0,-2.5,173.984,58.1774)">
        <path id="path87738" d="M0,0C-2.533,0 -3.014,1.885 -3.014,5.365C-3.014,8.822 -2.533,10.695 0,10.695C2.533,10.695 3.015,8.822 3.015,5.365C3.015,1.885 2.533,0 0,0M6.493,13.908C5.314,15.085 3.427,15.787 1.441,15.787C-0.432,15.787 -1.841,15.314 -3.014,14.273L-3.014,22.807L-8.598,22.807L-8.598,-4.866L-3.166,-4.866L-3.166,-3.472C-1.918,-4.602 -0.499,-5.094 1.441,-5.094C3.427,-5.094 5.314,-4.391 6.493,-3.215C8.598,-1.108 8.598,2.482 8.598,5.365C8.598,8.232 8.598,11.8 6.493,13.908" style="fill:rgb(255,208,0);fill-rule:nonzero;"/>
    </g>
    <g id="g87740" transform="matrix(2.5,0,0,-2.5,217.239,31.7036)">
        <path id="path87742" d="M0,0L0,-9.162C0,-10.169 0.425,-10.621 1.378,-10.621L3.104,-10.621L3.17,-10.861C3.61,-12.442 4.259,-13.809 5.108,-14.923L5.504,-15.447L0.471,-15.447C-3.718,-15.447 -5.589,-12.443 -5.589,-9.466L-5.589,0L-7.265,0L-7.265,4.408L-5.589,4.408L-5.589,8.675L0,10.368L0,4.408L5.975,4.408L5.629,3.901C4.913,2.834 4.346,1.599 3.948,0.234L3.88,0L0,0Z" style="fill:rgb(255,208,0);fill-rule:nonzero;"/>
    </g>
    <g id="g87744" transform="matrix(2.5,0,0,-2.5,13.684,37.918)">
        <path id="path87746" d="M0,0C1.122,-0.013 2.05,-0.352 2.72,-0.963L2.722,-0.963L12.686,-10.925C12.787,-11.026 14.438,-12.962 18.539,-12.962L23.324,-12.962C25.63,-12.962 28.166,-12.431 30.033,-10.629C31.859,-9.135 32.908,-6.998 32.908,-4.439C32.908,-1.854 32.172,0.154 30.718,1.533C29.47,2.693 27.824,3.365 25.379,3.702L22.19,4.159C21.239,4.289 20.39,4.646 19.862,5.135C19.261,5.697 19.17,6.44 19.17,6.834C19.17,8.738 20.642,9.923 23.017,9.923C24.729,9.923 26.701,9.711 28.332,8.154L28.562,7.934L32.365,11.694L32.127,11.926C29.808,14.167 27.046,15.167 23.17,15.167C17.254,15.167 13.432,11.82 13.432,6.643C13.432,4.278 14.095,2.465 15.466,1.094C16.718,-0.117 18.492,-0.878 20.887,-1.233L24.143,-1.686C25.43,-1.881 25.933,-2.152 26.363,-2.552C26.842,-2.998 27.095,-3.705 27.095,-4.59C27.095,-6.162 26.25,-7.113 25.271,-7.691C24.738,-7.957 24.114,-8.11 23.406,-8.126L18.423,-8.126C17.348,-8.102 16.46,-7.778 15.803,-7.202L5.858,2.745L5.855,2.741C4.017,4.35 1.606,4.83 -0.597,4.83L-4.946,4.83C-5.188,3.24 -5.352,1.626 -5.474,0L0,0Z" style="fill:rgb(255,208,0);fill-rule:nonzero;"/>
    </g>
</svg>
