<?xml version="1.0" encoding="UTF-8" standalone="no"?>
<!DOCTYPE svg PUBLIC "-//W3C//DTD SVG 1.1//EN" "http://www.w3.org/Graphics/SVG/1.1/DTD/svg11.dtd">
<svg width="100%" height="100%" viewBox="0 0 382 382" version="1.1" xmlns="http://www.w3.org/2000/svg" xmlns:xlink="http://www.w3.org/1999/xlink" xml:space="preserve" xmlns:serif="http://www.serif.com/" style="fill-rule:evenodd;clip-rule:evenodd;">
    <path id="path5" d="M371.834,191.03C371.834,291.05 290.975,372.014 190.929,372.014C90.879,372.014 9.562,291.049 9.562,191.03C9.563,90.536 90.879,9.563 190.929,9.563C290.975,9.563 371.834,90.536 371.834,191.03Z" style="fill:none;fill-rule:nonzero;stroke:rgb(230,0,62);stroke-width:19.12px;"/>
    <path id="path7" d="M354.933,191.03C354.933,281.522 281.38,354.867 190.929,354.867C100.472,354.867 26.921,281.522 26.921,191.03C26.921,100.054 100.472,26.71 190.929,26.71C281.38,26.71 354.933,100.055 354.933,191.03" style="fill:rgb(0,120,193);fill-rule:nonzero;"/>
    <g id="path9" transform="matrix(1.04277,0,0,1.04277,-9.56129,-7.85552)">
        <path d="M127.428,174.832C126.057,172.934 123.315,172.45 119.658,172.45C105.956,172.45 102.3,191.03 102.3,199.125C102.3,207.703 104.128,215.314 113.264,215.314C121.486,215.314 125.142,207.219 126.971,202.456L157.122,202.456C151.642,227.224 136.564,239.133 112.808,239.133C77.63,239.133 70.779,215.798 70.779,199.6C70.779,170.069 89.051,148.166 120.573,148.166C143.416,148.166 160.779,159.117 160.322,183.41L129.714,183.41C130.17,179.121 129.256,176.739 127.428,174.832" style="fill:white;fill-rule:nonzero;"/>
    </g>
    <g id="path11" transform="matrix(1.04277,0,0,1.04277,-8.22594,-7.85552)">
        <path d="M212.401,212.941L207.831,236.751C207.831,236.751 199.607,237.226 194.58,237.226C188.187,237.701 179.051,238.184 174.024,235.319C168.544,231.988 166.259,225.317 166.259,219.13C166.259,214.841 167.173,211.51 168.087,207.704L175.395,173.409L161.688,173.409L165.801,153.405L179.508,153.405L184.531,128.163L215.597,128.163L210.116,153.405L226.56,153.405L222.453,173.409L206.917,173.409L201.436,200.558C201.436,201.982 200.522,205.796 200.522,208.653C200.522,211.51 203.718,212.942 205.546,212.942C210.573,212.941 213.315,212.941 212.401,212.941" style="fill:white;fill-rule:nonzero;"/>
    </g>
    <g id="path13" transform="matrix(1.04277,0,0,1.04277,-5.62077,-7.85552)">
        <path d="M257.626,217.222C253.973,217.697 247.574,217.222 247.574,211.034C247.574,204.838 253.515,202.456 258.997,201.507C264.481,200.558 269.046,199.6 274.073,196.743C272.246,209.602 264.939,215.798 257.626,217.222M270.417,147.208C249.859,147.208 235.243,154.828 227.931,174.357L258.083,174.357C261.282,170.068 264.938,167.695 271.331,167.695C275.901,167.212 282.751,167.695 281.837,173.408C280.466,179.596 265.847,181.977 257.169,182.452C232.958,184.359 216.511,192.454 216.511,215.314C216.511,231.987 229.302,238.183 243.921,238.183C253.059,238.183 264.025,234.843 269.503,227.698L269.96,227.698L268.132,236.751L298.287,236.751C298.287,236.751 311.075,183.885 311.075,170.552C311.076,149.59 285.494,147.208 270.417,147.208Z" style="fill:white;fill-rule:nonzero;"/>
    </g>
</svg>
