<?xml version="1.0" encoding="UTF-8" standalone="no"?>
<!DOCTYPE svg PUBLIC "-//W3C//DTD SVG 1.1//EN" "http://www.w3.org/Graphics/SVG/1.1/DTD/svg11.dtd">
<svg width="100%" height="100%" viewBox="0 0 381 360" version="1.1" xmlns="http://www.w3.org/2000/svg" xmlns:xlink="http://www.w3.org/1999/xlink" xml:space="preserve" xmlns:serif="http://www.serif.com/" style="fill-rule:evenodd;clip-rule:evenodd;stroke-linejoin:round;stroke-miterlimit:2;">
    <g transform="matrix(1,0,0,1,-9.99789,-30.02)">
        <path d="M89.23,30.02L202.52,210.97L89.23,389.12L277.35,389.12L390,210.97L277.35,30.02L89.23,30.02Z" style="fill:rgb(252,208,6);fill-rule:nonzero;"/>
    </g>
    <g transform="matrix(1,0,0,1,-9.99789,-30.02)">
        <path d="M214.8,266.17L190.704,266.17L190.704,254.665L214.766,254.665C218.052,254.665 220.69,257.249 220.69,260.433C220.69,263.618 218.052,266.17 214.8,266.17M249.761,305.427L233.289,283.785C240.715,277.658 243.886,270.435 243.886,261.469C243.886,245.257 230.434,232.104 213.704,232.104L167.995,232.104L167.995,305.201L190.704,305.186L190.704,266.905L219.598,305.428L249.761,305.427ZM112.511,305.193L125.994,284.014L134.64,284.014L126.871,271.764L105.655,305.193L80.513,305.193L126.87,232.19L173.396,305.193L112.511,305.193ZM55.403,283.504L32.65,283.486L32.65,254.837L55.224,254.837C63.539,254.837 70.135,261.287 70.135,269.241C70.135,277.19 63.539,283.504 55.403,283.504M55.252,232.083L9.998,232.083L9.998,305.234L55.426,305.198C76.126,305.198 92.898,288.942 92.898,268.715C92.898,248.486 76.126,232.083 55.252,232.083M246.992,232.241L322.415,232.241L322.415,254.695L296.058,254.695L296.058,305.192L273.398,305.192L273.398,254.695L246.992,254.695L246.992,232.241Z" style="fill:rgb(18,55,122);fill-rule:nonzero;"/>
    </g>
</svg>
