<?xml version="1.0" encoding="UTF-8" standalone="no"?>
<!DOCTYPE svg PUBLIC "-//W3C//DTD SVG 1.1//EN" "http://www.w3.org/Graphics/SVG/1.1/DTD/svg11.dtd">
<svg width="100%" height="100%" viewBox="0 0 1800 1800" version="1.1" xmlns="http://www.w3.org/2000/svg" xmlns:xlink="http://www.w3.org/1999/xlink" xml:space="preserve" xmlns:serif="http://www.serif.com/" style="fill-rule:evenodd;clip-rule:evenodd;stroke-linejoin:round;stroke-miterlimit:2;">
    <g transform="matrix(1.21749,0,0,1.21749,-80543.3,-20921)">
        <path d="M66837.3,17898.4L67114.4,17898.4C67045.9,17966.9 66935.7,18077.1 66935.7,18077.1C66926.8,18086.1 66924.1,18099.5 66929,18111.2C66933.8,18122.9 66945.2,18130.5 66957.8,18130.5L67201,18130.5C67209.2,18130.5 67217.1,18127.2 67223,18121.4L67541,17807.1C67546.9,17801.3 67550.3,17793.2 67550.3,17784.9L67550.3,17769.3C67550.3,17761 67546.9,17753 67541,17747.2L67225.2,17433.6C67219.4,17427.8 67211.5,17424.5 67203.2,17424.5L66957.8,17424.5C66945.2,17424.5 66933.8,17432.1 66929,17443.8C66924.1,17455.5 66926.8,17468.9 66935.8,17477.9L66951.8,17493.9L66674.7,17493.9C66674.7,17493.9 66853.4,17315.2 66853.4,17315.2C66862.4,17306.3 66865,17292.8 66860.2,17281.1C66855.4,17269.5 66844,17261.9 66831.3,17261.9L66588.2,17261.9C66580,17261.9 66572.1,17265.1 66566.2,17270.9L66248.2,17585.2C66242.2,17591.1 66238.9,17599.1 66238.9,17607.4L66238.9,17623C66238.9,17631.3 66242.2,17639.3 66248.1,17645.2L66563.9,17958.8C66569.8,17964.6 66577.7,17967.8 66586,17967.8L66831.3,17967.8C66844,17967.8 66855.4,17960.2 66860.2,17948.5C66865,17936.8 66862.4,17923.4 66853.4,17914.4L66837.3,17898.4ZM66760.5,17821.8L66673.7,17735.3L67224,17735.3C67241.2,17735.3 67255.2,17721.4 67255.2,17704.1L67255.2,17701.9C67255.2,17693.6 67251.9,17685.6 67246.1,17679.8C67246.1,17679.8 67135.9,17569.6 67067.4,17501.1C67067.4,17501.1 67184.4,17501.1 67184.4,17501.1L67462.1,17776.7L67182.2,18053.9C67182.2,18053.9 67067.4,18053.9 67067.4,18053.9C67067.4,18053.9 67246.1,17875.2 67246.1,17875.2C67255,17866.3 67257.7,17852.8 67252.8,17841.1C67248,17829.5 67236.6,17821.8 67224,17821.8L66760.5,17821.8ZM67028.7,17570.5L67115.4,17657L66565.2,17657C66556.9,17657 66549,17660.3 66543.1,17666.1C66537.2,17672 66533.9,17679.9 66533.9,17688.2L66533.9,17690.5C66533.9,17698.7 66537.2,17706.7 66543.1,17712.6L66721.8,17891.2C66721.8,17891.2 66604.8,17891.2 66604.8,17891.2L66327.1,17615.6L66607,17338.4C66607,17338.4 66721.8,17338.4 66721.8,17338.4C66721.8,17338.4 66543.1,17517.1 66543.1,17517.1C66534.2,17526.1 66531.5,17539.5 66536.3,17551.2C66541.2,17562.9 66552.6,17570.5 66565.2,17570.5L67028.7,17570.5Z" style="fill:white;fill-rule:nonzero;"/>
    </g>
    <g transform="matrix(3.61182,0,0,3.61182,-156406,-66897.3)">
        <g transform="matrix(0.937477,0,0,1,2708.4,0)">
            <text x="43318.6px" y="19017.4px" style="font-family:'HelveticaNeue-Bold', 'Helvetica Neue';font-weight:700;font-size:209.845px;fill:white;">D</text>
        </g>
        <g transform="matrix(0.937477,0,0,1,2717.26,0)">
            <text x="43460.5px" y="19017.4px" style="font-family:'HelveticaNeue-Bold', 'Helvetica Neue';font-weight:700;font-size:209.845px;fill:white;">e<tspan x="43578.8px 43630.9px 43753.2px " y="19017.4px 19017.4px 19017.4px ">lhi</tspan></text>
        </g>
    </g>
</svg>
