<?xml version="1.0" encoding="UTF-8" standalone="no"?>
<!DOCTYPE svg PUBLIC "-//W3C//DTD SVG 1.1//EN" "http://www.w3.org/Graphics/SVG/1.1/DTD/svg11.dtd">
<svg width="100%" height="100%" viewBox="0 0 1601 1586" version="1.1" xmlns="http://www.w3.org/2000/svg" xmlns:xlink="http://www.w3.org/1999/xlink" xml:space="preserve" xmlns:serif="http://www.serif.com/" style="fill-rule:evenodd;clip-rule:evenodd;stroke-linejoin:round;stroke-miterlimit:2;">
    <g transform="matrix(0.964391,0,0,1.02883,-72.0001,-45.1916)">
        <path d="M856.418,100.471C856.418,84.402 842.5,71.356 825.357,71.356L653.485,71.356C636.342,71.356 622.424,84.402 622.424,100.471L622.424,440.726C622.424,456.795 636.342,469.841 653.485,469.841L825.357,469.841C842.5,469.841 856.418,456.795 856.418,440.726L856.418,100.471Z" style="fill:rgb(0,153,233);"/>
    </g>
    <g transform="matrix(1.14401,0,0,1.02883,-183.801,1073.46)">
        <path d="M856.418,105.894C856.418,86.832 842.5,71.356 825.357,71.356L653.485,71.356C636.342,71.356 622.424,86.832 622.424,105.894L622.424,435.303C622.424,454.365 636.342,469.841 653.485,469.841L825.357,469.841C842.5,469.841 856.418,454.365 856.418,435.303L856.418,105.894Z" style="fill:rgb(0,153,233);"/>
    </g>
    <g transform="matrix(7.00506e-17,-1.14401,1.02883,6.29974e-17,1088.87,1506.95)">
        <path d="M856.418,105.894C856.418,86.832 842.5,71.356 825.357,71.356L653.485,71.356C636.342,71.356 622.424,86.832 622.424,105.894L622.424,435.303C622.424,454.365 636.342,469.841 653.485,469.841L825.357,469.841C842.5,469.841 856.418,454.365 856.418,435.303L856.418,105.894Z" style="fill:rgb(0,153,233);"/>
    </g>
    <g transform="matrix(0.964391,0,0,1.02883,247.867,-45.1916)">
        <path d="M856.418,100.471C856.418,84.402 842.5,71.356 825.357,71.356L653.485,71.356C636.342,71.356 622.424,84.402 622.424,100.471L622.424,440.726C622.424,456.795 636.342,469.841 653.485,469.841L825.357,469.841C842.5,469.841 856.418,456.795 856.418,440.726L856.418,100.471Z" style="fill:rgb(0,153,233);"/>
    </g>
    <g transform="matrix(5.90519e-17,0.964391,-1.02883,6.29974e-17,511.884,-72.9066)">
        <path d="M856.418,100.471C856.418,84.402 842.5,71.356 825.357,71.356L653.485,71.356C636.342,71.356 622.424,84.402 622.424,100.471L622.424,440.726C622.424,456.795 636.342,469.841 653.485,469.841L825.357,469.841C842.5,469.841 856.418,456.795 856.418,440.726L856.418,100.471Z" style="fill:rgb(0,153,233);"/>
    </g>
    <g transform="matrix(1.06736e-16,1.74313,-1.02883,6.29974e-17,511.884,-1056.75)">
        <path d="M856.418,123.982C856.418,94.937 842.5,71.356 825.357,71.356L653.485,71.356C636.342,71.356 622.424,94.937 622.424,123.982L622.424,417.215C622.424,446.26 636.342,469.841 653.485,469.841L825.357,469.841C842.5,469.841 856.418,446.26 856.418,417.215L856.418,123.982Z" style="fill:rgb(0,153,233);"/>
    </g>
    <g transform="matrix(1.06736e-16,1.74313,-1.02883,6.29974e-17,511.884,61.9041)">
        <path d="M856.418,123.982C856.418,94.937 842.5,71.356 825.357,71.356L653.485,71.356C636.342,71.356 622.424,94.937 622.424,123.982L622.424,417.215C622.424,446.26 636.342,469.841 653.485,469.841L825.357,469.841C842.5,469.841 856.418,446.26 856.418,417.215L856.418,123.982Z" style="fill:rgb(0,153,233);"/>
    </g>
    <g transform="matrix(1.06736e-16,1.74313,-1.46959,8.99865e-17,1576.89,61.9041)">
        <path d="M856.418,108.198C856.418,87.864 842.5,71.356 825.357,71.356L622.424,321.368L622.424,432.999C622.424,453.332 636.342,469.841 653.485,469.841L825.357,469.841C842.5,469.841 856.418,453.332 856.418,432.999L856.418,108.198Z" style="fill:rgb(0,153,233);"/>
    </g>
    <g transform="matrix(1.74313,2.13472e-16,1.79973e-16,-1.46959,77.3113,1544.54)">
        <path d="M856.418,108.198C856.418,87.864 842.5,71.356 825.357,71.356L622.424,302.298L622.424,432.999C622.424,453.332 636.342,469.841 653.485,469.841L825.357,469.841C842.5,469.841 856.418,453.332 856.418,432.999L856.418,108.198Z" style="fill:rgb(0,153,233);"/>
    </g>
    <g transform="matrix(1.06736e-16,1.74313,-1.02883,6.29974e-17,1645.66,-1056.75)">
        <path d="M856.418,123.982C856.418,94.937 842.5,71.356 825.357,71.356L653.485,71.356C636.342,71.356 622.424,94.937 622.424,123.982L622.424,417.215C622.424,446.26 636.342,469.841 653.485,469.841L825.357,469.841C842.5,469.841 856.418,446.26 856.418,417.215L856.418,123.982Z" style="fill:rgb(0,153,233);"/>
    </g>
    <g transform="matrix(5.90519e-17,0.964391,-1.02883,6.29974e-17,511.884,246.96)">
        <path d="M856.418,100.471C856.418,84.402 842.5,71.356 825.357,71.356L653.485,71.356C636.342,71.356 622.424,84.402 622.424,100.471L622.424,440.726C622.424,456.795 636.342,469.841 653.485,469.841L825.357,469.841C842.5,469.841 856.418,456.795 856.418,440.726L856.418,100.471Z" style="fill:rgb(0,153,233);"/>
    </g>
</svg>
