<?xml version="1.0" encoding="UTF-8" standalone="no"?>
<!DOCTYPE svg PUBLIC "-//W3C//DTD SVG 1.1//EN" "http://www.w3.org/Graphics/SVG/1.1/DTD/svg11.dtd">
<svg width="100%" height="100%" viewBox="0 0 1800 1800" version="1.1" xmlns="http://www.w3.org/2000/svg" xmlns:xlink="http://www.w3.org/1999/xlink" xml:space="preserve" xmlns:serif="http://www.serif.com/" style="fill-rule:evenodd;clip-rule:evenodd;stroke-linecap:round;">
    <g id="path6703" transform="matrix(1.01284,0,0,1.01284,-0.481991,-11.5601)">
        <path d="M195.844,583.14L426.745,581.878C479.158,585.191 503.728,600.203 531.277,618.862L540.183,583.14L1540.99,583.14L1740.26,914.787L1549.24,1218.12L1368.32,1218.12L1559.34,914.787L1453.43,738.535L1373.28,738.535L1479.18,914.787L1288.16,1218.12L1107.55,1218.12L1298.57,914.787L1192.67,738.535L1112.6,738.535L1218.5,914.787L1027.48,1218.12L846.354,1218.12L1037.37,914.787L931.471,738.535L876.365,738.535L763.47,1218.12L522.533,1218.12L253.11,992.049L196.744,1218.12L37.525,1218.12L138.365,813.675L426.431,813.675C426.431,813.675 456.571,815.674 456.571,777.105C456.571,738.535 426.431,738.535 426.431,738.535L157.099,738.535L195.844,583.14ZM720.493,738.535L629.042,1105.32L458.605,962.31C588.702,919.508 613.341,838.785 605.904,738.535L720.493,738.535Z" style="fill:white;stroke:rgb(10,81,161);stroke-width:45.83px;"/>
    </g>
</svg>
