<?xml version="1.0" encoding="UTF-8" standalone="no"?>
<!DOCTYPE svg PUBLIC "-//W3C//DTD SVG 1.1//EN" "http://www.w3.org/Graphics/SVG/1.1/DTD/svg11.dtd">
<svg width="100%" height="100%" viewBox="0 0 2077 1469" version="1.1" xmlns="http://www.w3.org/2000/svg" xmlns:xlink="http://www.w3.org/1999/xlink" xml:space="preserve" xmlns:serif="http://www.serif.com/" style="fill-rule:evenodd;clip-rule:evenodd;stroke-linejoin:round;stroke-miterlimit:2;">
    <g transform="matrix(0.977876,0,0,0.977876,-17415.2,-2004.89)">
        <g transform="matrix(1.33333,0,0,1.33333,17694.5,1599.06)">
            <path d="M882.404,681.644L961.517,482.56C961.517,482.56 961.517,482.56 961.517,482.559C987.579,403.933 1061.09,350.855 1143.92,350.855L1415.87,350.855C1480.92,350.855 1543.3,376.696 1589.3,422.693C1635.3,468.69 1661.13,531.075 1661.13,596.124L1661.13,1443.6L1242.81,1443.6L1242.81,912.905C1242.81,912.905 1166.89,1105.75 1084.73,1314.42C1052,1397.55 971.75,1452.2 882.405,1452.2C793.06,1452.2 712.808,1397.55 680.077,1314.42C597.923,1105.75 521.997,912.905 521.997,912.905L521.997,1443.6L103.672,1443.6L103.672,587.718C103.672,524.898 128.627,464.651 173.048,420.231C217.468,375.81 277.715,350.855 340.535,350.855L620.885,350.855C703.717,350.855 777.229,403.933 803.29,482.559C803.291,482.56 803.291,482.56 803.291,482.56L882.403,681.644"/>
        </g>
        <g transform="matrix(1.33333,0,0,1.33333,17694.5,1599.06)">
            <path d="M882.406,845.777L1025.18,492.502C1045.24,442.871 1093.42,410.386 1146.95,410.398L1412.93,410.459C1516.98,410.483 1601.31,494.835 1601.31,598.88L1601.31,1384.22L1481.18,1384.22L1481.18,599.678C1481.18,560.793 1449.65,529.271 1410.77,529.271L1184.3,529.271C1157.11,529.271 1132.62,545.708 1122.32,570.869C1064.97,710.998 882.404,1157.08 882.404,1157.08C867.301,1120.18 695.815,701.173 641.711,568.975C631.882,544.96 608.509,529.271 582.56,529.271L348.84,529.271C331.546,529.271 314.96,536.141 302.732,548.369C290.503,560.598 283.633,577.183 283.633,594.477L283.633,1384.22L163.498,1384.22L163.498,594.972C163.498,493.085 246.081,410.484 347.967,410.46L617.861,410.398C671.392,410.386 719.571,442.871 739.629,492.502L882.403,845.777" style="fill:rgb(255,14,16);"/>
        </g>
        <g transform="matrix(1.33333,0,0,1.33333,17933.8,1599.06)">
            <path d="M1122.28,1384.22L1122.28,709.459L1077.59,709.459C1077.59,709.459 954.274,1023.13 849.14,1290.54C825.515,1350.63 767.524,1390.15 702.956,1390.15C638.387,1390.15 580.396,1350.63 556.771,1290.54C451.637,1023.13 328.317,709.459 328.317,709.459L283.633,709.459L283.633,1384.22L163.498,1384.22L163.498,607.504C163.498,602.742 165.39,598.174 168.757,594.807C172.125,591.439 176.692,589.548 181.454,589.548C226.596,589.548 344.502,589.548 390.701,589.548C402.131,589.548 412.391,596.563 416.538,607.215C449.86,692.801 595.741,1067.49 665.516,1246.7C671.525,1262.14 686.391,1272.3 702.954,1272.3C719.518,1272.3 734.384,1262.14 740.393,1246.7C809.744,1068.58 954.277,697.358 988.752,608.811C993.274,597.196 1004.46,589.548 1016.92,589.548C1060.84,589.548 1163.54,589.548 1213.75,589.548C1229.58,589.548 1242.41,602.382 1242.41,618.214L1242.41,1384.22L1122.28,1384.22Z" style="fill:rgb(255,14,16);"/>
        </g>
    </g>
</svg>
