<?xml version="1.0" encoding="UTF-8" standalone="no"?>
<!DOCTYPE svg PUBLIC "-//W3C//DTD SVG 1.1//EN" "http://www.w3.org/Graphics/SVG/1.1/DTD/svg11.dtd">
<svg width="100%" height="100%" viewBox="0 0 1800 1800" version="1.1" xmlns="http://www.w3.org/2000/svg" xmlns:xlink="http://www.w3.org/1999/xlink" xml:space="preserve" xmlns:serif="http://www.serif.com/" style="fill-rule:evenodd;clip-rule:evenodd;stroke-linejoin:round;stroke-miterlimit:2;">
    <g transform="matrix(2.15707,0,0,2.15707,-5775.75,-35129.7)">
        <path d="M3342.93,16869.6L2849.42,16869.6L2849.42,16953.1L3342.93,16953.1L3342.93,16869.6ZM3342.93,16814.1L3342.93,16454.2L3263.87,16454.2L3263.87,16814.1L3342.93,16814.1ZM2850.18,16522.3L2849.42,16522.3L2849.42,16814.1L2928.49,16814.1L2928.49,16533.3L2987.57,16533.3L2987.57,16814.1L3066.63,16814.1L3066.63,16533.3L3125.72,16533.3L3125.72,16814.1L3204.78,16814.1L3204.78,16522.3L3204.02,16522.3C3201.66,16505.4 3193.85,16489.6 3181.62,16477.3C3166.8,16462.5 3146.69,16454.2 3125.72,16454.2C3066.99,16454.2 2987.22,16454.2 2928.48,16454.2C2907.51,16454.2 2887.41,16462.5 2872.58,16477.3C2860.35,16489.6 2852.54,16505.4 2850.18,16522.3Z" style="fill:rgb(240,105,0);"/>
    </g>
    <g transform="matrix(2.15707,0,0,2.15707,-3085.04,-35129.7)">
        <path d="M1847.43,16992.8L1716.05,17120.3L1978.82,17120.3L1847.43,16992.8ZM1544.4,17004.2L1768.43,17004.2L1674.07,17095.7L1450.04,17095.7L1450.04,16883.6L1544.4,16786.4L1544.4,17004.2ZM2150.47,16786.9L2244.83,16884.1L2244.83,17095.7L2020.8,17095.7L1926.44,17004.2L2150.47,17004.2L2150.47,16786.9ZM1557.7,16703.1L1430.2,16834.5L1430.2,16571.7L1557.7,16703.1ZM2137.17,16703.1L2264.67,16834.5L2264.67,16571.7L2137.17,16703.1ZM1671.33,16307.7L1769.78,16403.3L1544.4,16403.3L1544.4,16617.1L1450.04,16519.9L1450.04,16307.7L1671.33,16307.7ZM2244.83,16519.3L2150.47,16616.6L2150.47,16403.3L1925.09,16403.3L2023.54,16307.7L2244.83,16307.7L2244.83,16519.3ZM1847.43,16413.3L1716.05,16285.8L1978.82,16285.8L1847.43,16413.3Z" style="fill:rgb(193,193,192);"/>
    </g>
</svg>
