<?xml version="1.0" encoding="UTF-8" standalone="no"?>
<!DOCTYPE svg PUBLIC "-//W3C//DTD SVG 1.1//EN" "http://www.w3.org/Graphics/SVG/1.1/DTD/svg11.dtd">
<svg width="100%" height="100%" viewBox="0 0 1800 1800" version="1.1" xmlns="http://www.w3.org/2000/svg" xmlns:xlink="http://www.w3.org/1999/xlink" xml:space="preserve" xmlns:serif="http://www.serif.com/" style="fill-rule:evenodd;clip-rule:evenodd;stroke-linejoin:round;stroke-miterlimit:2;">
    <g transform="matrix(1.13699,0,0,1.18804,-117.551,-136.945)">
        <rect x="103.388" y="115.27" width="1583.13" height="1515.11" style="fill:rgb(242,46,34);"/>
    </g>
    <g transform="matrix(1,0,0,1,3.46018,-7.91499)">
        <path d="M549.243,425.334L760.785,780.303C790.024,829.366 842.996,859.344 900.111,859.148C957.226,858.953 1009.99,828.613 1038.89,779.351L1243.84,430.035L1244.13,853.941L1435.8,853.808C1435.8,853.808 1435.62,587.971 1435.46,367.455C1435.41,288.645 1382.59,219.632 1306.53,198.994C1230.47,178.357 1150.01,211.208 1110.13,279.183L899.356,638.427L682.348,274.286C642.116,206.777 561.754,174.446 485.979,195.285C410.203,216.123 357.674,285 357.619,363.588C357.466,584.85 357.279,853.808 357.279,853.808L548.946,853.941L549.243,425.334Z" style="fill:white;"/>
    </g>
    <g transform="matrix(-1,1.22465e-16,-1.22465e-16,-1,1796.54,1807.91)">
        <path d="M1243.84,430.035L1244.13,853.941L1435.8,853.808C1435.8,853.808 1435.62,587.971 1435.46,367.455C1435.41,288.645 1382.59,219.632 1306.53,198.994C1230.47,178.357 1150.01,211.208 1110.13,279.183L899.356,638.427L682.348,274.286C642.116,206.777 561.754,174.446 485.979,195.285C410.203,216.123 357.674,285 357.619,363.588C357.466,584.85 357.279,853.808 357.279,853.808L548.946,853.941L549.243,425.334L760.785,780.303C790.024,829.366 842.996,859.344 900.111,859.148C957.226,858.953 1009.99,828.613 1038.89,779.351L1243.84,430.035Z" style="fill:white;"/>
    </g>
</svg>
