<?xml version="1.0" encoding="UTF-8" standalone="no"?>
<!DOCTYPE svg PUBLIC "-//W3C//DTD SVG 1.1//EN" "http://www.w3.org/Graphics/SVG/1.1/DTD/svg11.dtd">
<svg width="100%" height="100%" viewBox="0 0 1800 1800" version="1.1" xmlns="http://www.w3.org/2000/svg" xmlns:xlink="http://www.w3.org/1999/xlink" xml:space="preserve" xmlns:serif="http://www.serif.com/" style="fill-rule:evenodd;clip-rule:evenodd;stroke-linejoin:round;stroke-miterlimit:2;">
    <g>
        <g transform="matrix(0.757165,0,0,0.757165,-47412,-14689.4)">
            <path d="M63882.6,20807.2L63882.6,21567.1C63882.6,21624.6 63929.3,21671.2 63986.8,21671.2C64044.2,21671.2 64090.9,21624.6 64090.9,21567.1L64090.9,20947.5L63882.6,20807.2ZM63882.6,20317.4L64090.9,20188.7L64090.9,19611.2C64090.9,19553.7 64044.2,19507 63986.8,19507C63929.3,19507 63882.6,19553.7 63882.6,19611.2L63882.6,20317.4Z" style="fill:rgb(68,185,118);"/>
        </g>
        <g transform="matrix(0.757165,0,0,0.757165,-47412,-14689.4)">
            <path d="M63730.2,20841.3L63521.8,20956.6L63521.8,21567.1C63521.8,21624.6 63568.5,21671.2 63626,21671.2C63683.5,21671.2 63730.2,21624.6 63730.2,21567.1L63730.2,20841.3ZM63521.8,20207.5L63730.2,20330L63730.2,19611.2C63730.2,19553.7 63683.5,19507 63626,19507C63568.5,19507 63521.8,19553.7 63521.8,19611.2L63521.8,20207.5Z" style="fill:rgb(164,201,41);"/>
        </g>
        <g transform="matrix(0.757165,0,0,0.757165,-47412,-14689.4)">
            <path d="M64327.9,20561.7L64109.2,20675.9L64691.4,21012.1C64741.2,21040.8 64805,21023.8 64833.7,20974C64862.5,20924.2 64845.4,20860.4 64795.6,20831.7L64327.9,20561.7ZM63708.6,20444.7L63917.9,20325L63101.7,19853.7C63051.9,19825 62988.2,19842.1 62959.4,19891.9C62930.7,19941.6 62947.8,20005.4 62997.6,20034.1L63708.6,20444.7Z" style="fill:rgb(17,167,221);"/>
        </g>
        <g transform="matrix(0.757165,0,0,0.757165,-47412,-14689.4)">
            <path d="M63915,20739.8L63710.2,20862.1L64511,21324.5C64560.8,21353.2 64624.6,21336.2 64653.3,21286.4C64682.1,21236.6 64665,21172.8 64615.2,21144.1L63915,20739.8ZM63355.5,20657.4L63556,20532.6L62921.4,20166.1C62871.6,20137.4 62807.8,20154.5 62779.1,20204.3C62750.3,20254 62767.4,20317.8 62817.2,20346.6L63355.5,20657.4Z" style="fill:rgb(111,90,167);"/>
        </g>
        <g transform="matrix(0.378582,0.655724,-0.655724,0.378582,-7655.56,-45256.5)">
            <path d="M58157.8,19716.2L58157.8,21672.1C58157.8,21729.6 58204.5,21776.3 58262,21776.3C58319.5,21776.3 58366.1,21729.6 58366.1,21672.1L58366.1,19716.2C58366.1,19658.8 58319.5,19612.1 58262,19612.1C58204.5,19612.1 58157.8,19658.8 58157.8,19716.2Z" style="fill:rgb(242,124,0);"/>
        </g>
        <g transform="matrix(0.378582,0.655724,-0.655724,0.378582,-7518.99,-45020)">
            <path d="M58157.8,19716.2L58157.8,21672.1C58157.8,21729.6 58204.5,21776.3 58262,21776.3C58319.5,21776.3 58366.1,21729.6 58366.1,21672.1L58366.1,19716.2C58366.1,19658.8 58319.5,19612.1 58262,19612.1C58204.5,19612.1 58157.8,19658.8 58157.8,19716.2Z" style="fill:rgb(236,36,22);"/>
        </g>
    </g>
</svg>
