<?xml version="1.0" encoding="UTF-8" standalone="no"?>
<!DOCTYPE svg PUBLIC "-//W3C//DTD SVG 1.1//EN" "http://www.w3.org/Graphics/SVG/1.1/DTD/svg11.dtd">
<svg width="100%" height="100%" viewBox="0 0 140 131" version="1.1" xmlns="http://www.w3.org/2000/svg" xmlns:xlink="http://www.w3.org/1999/xlink" xml:space="preserve" xmlns:serif="http://www.serif.com/" style="fill-rule:evenodd;clip-rule:evenodd;stroke-linejoin:round;stroke-miterlimit:2;">
    <g transform="matrix(0.527576,0,0,0.527576,-46.8959,31.298)">
        <path d="M290.178,-8.732L353.075,65.5L290.03,138.267L242.176,138.267L303.617,65.5L241.3,-8.732L290.178,-8.732Z" style="fill:rgb(0,129,77);"/>
    </g>
    <g transform="matrix(0.891159,0,0,0.891159,-192.294,7.78196)">
        <path d="M290.178,-8.732L353.075,65.5L290.03,138.267L242.176,138.267L303.617,65.5L241.3,-8.732L290.178,-8.732Z" style="fill:rgb(255,197,62);"/>
    </g>
    <g transform="matrix(1,0,0,1,-260.622,3.4639e-14)">
        <path d="M309.679,14.283L353.075,65.5L309.865,115.374L261.506,115.374L303.617,65.5L260.622,14.283L309.679,14.283Z" style="fill:rgb(141,63,158);"/>
    </g>
</svg>
