<?xml version="1.0" encoding="UTF-8" standalone="no"?>
<!DOCTYPE svg PUBLIC "-//W3C//DTD SVG 1.1//EN" "http://www.w3.org/Graphics/SVG/1.1/DTD/svg11.dtd">
<svg width="100%" height="100%" viewBox="0 0 1800 1800" version="1.1" xmlns="http://www.w3.org/2000/svg" xmlns:xlink="http://www.w3.org/1999/xlink" xml:space="preserve" xmlns:serif="http://www.serif.com/" style="fill-rule:evenodd;clip-rule:evenodd;stroke-linejoin:round;stroke-miterlimit:2;">
    <g transform="matrix(1.17741,0,0,1.17741,-101964,-14396.4)">
        <g transform="matrix(4.16667,0,0,4.16667,86386.6,12105.9)">
            <path d="M173.3,230.1C173.545,228.376 173.75,226.692 173.994,224.989C177.382,199.829 180.134,174.799 183.912,149.639C187.908,122.949 192.812,93.769 198.032,77.329C199.862,71.611 202.8,65.909 205.472,65.909C208.585,65.909 211.034,70.276 212.1,72.84C214.626,79.008 216.154,86.33 217.779,92.83C222.086,110.04 227.041,140.12 229.939,160.78C231.585,172.61 233.554,186.39 234.64,195.24C234.454,196.747 234.228,198.256 234.042,199.782C232.153,214.092 230.351,228.292 228.442,242.602C225.358,265.122 222.294,287.682 218.272,310.122C215.952,323.082 213.612,336.052 209.334,348.602C207.982,352.401 205.065,359.102 202.54,359.102C199.621,359.102 198.183,356.949 197.086,354.912C193.307,347.941 191.731,340.832 189.958,333.192C185.504,313.752 182.381,294.032 179.568,274.332C177.307,258.472 174.576,239.532 173.304,230.102" style="fill:rgb(143,156,255);fill-rule:nonzero;"/>
        </g>
        <g transform="matrix(4.16667,0,0,4.16667,86386.6,12105.9)">
            <path d="M366.6,262.8L348.4,262.8C348.4,262.8 344.416,290.33 342.361,302.55C339.922,317.37 337.328,332.2 332.795,346.51C331.356,351.112 328.496,359.12 324.904,359.12C322.396,359.12 321.037,356.79 320.136,355.36C317.687,351.306 315.513,344.05 314.015,338.13C309.474,320.24 306.517,302.08 303.765,283.81C300.947,265.05 296.04,228.53 296.04,228.53C296.177,227.669 296.284,226.865 296.364,225.945C300.868,193.165 304.626,162.185 309.964,129.465C312.618,113.115 315.556,94.615 320.544,78.695C322.149,73.545 325.351,65.925 328.327,65.925C331.618,65.837 333.858,70.213 334.888,72.661C337.55,78.967 339.263,85.641 340.822,92.851C345.326,113.311 349.203,136.691 352.082,156.781C354.443,173.641 356.703,190.481 359.025,207.321C361.324,224.181 366.357,261.231 366.601,262.791" style="fill:rgb(143,156,255);fill-rule:nonzero;"/>
        </g>
        <g transform="matrix(4.16667,0,0,4.16667,86386.6,12105.9)">
            <path d="M102.8,262.8C101.068,274.86 99.383,286.55 98.541,292.35C95.956,309.6 92.608,329.65 87.451,346.34C85.933,351.195 83.016,359.24 79.972,359.24C77.309,359.24 75.536,357.4 74.038,354.365C70.788,347.981 69.006,340.545 67.283,333.085C62.485,312.155 55.203,262.805 55.203,262.805L102.803,262.805L102.8,262.8Z" style="fill:rgb(143,156,255);fill-rule:nonzero;"/>
        </g>
        <g transform="matrix(4.16667,0,0,4.16667,86386.6,12105.9)">
            <path d="M174,225C177.387,199.84 180.118,174.81 183.898,149.65C187.903,122.96 192.817,93.78 198.018,77.34C199.859,71.622 202.796,65.92 205.469,65.92L141.699,65.959C140.387,65.959 137.078,66.037 134.464,72.264C129.471,83.934 125.124,103.554 120.374,135.724C118.209,150.684 115.958,165.474 113.922,180.444C111.747,196.264 109.732,212.264 107.577,228.104C106.011,239.694 100.322,279.834 98.491,292.334C95.907,309.594 92.557,329.644 87.381,346.324C85.882,351.179 82.964,359.224 79.9,359.224L143.36,359.224C145.416,359.224 148.127,358.303 150.752,352.978C154.99,344.381 159.69,320.098 162.852,302.298C165.465,287.538 168.912,261.408 171.027,246.608C172.074,239.482 173.042,232.018 173.993,224.988" style="fill:rgb(254,254,254);fill-rule:nonzero;"/>
        </g>
        <g transform="matrix(4.16667,0,0,4.16667,86386.6,12105.9)">
            <path d="M296.3,226C300.796,193.21 304.554,162.24 309.88,129.52C312.544,113.17 315.482,94.67 320.47,78.74C322.075,73.599 325.277,65.98 328.253,65.98L264.263,65.901C261.513,65.901 258.722,68.192 256.46,73.714C250.46,88.404 246.886,111.784 243.95,130.424C240.358,153.354 237.272,176.874 234.003,199.864C232.134,214.174 230.331,228.374 228.413,242.684C225.339,265.204 222.255,287.764 218.253,310.204C215.913,323.164 213.593,336.134 209.295,348.684C207.943,352.483 205.026,359.184 202.511,359.184L266.181,359.145C268.257,359.145 270.812,358.695 273.954,351.783C276.892,345.184 279.927,331.653 282.227,319.723C285.497,302.823 288.082,285.803 290.569,268.773C292.626,254.533 294.427,240.343 296.306,226.003" style="fill:rgb(254,254,254);fill-rule:nonzero;"/>
        </g>
        <g transform="matrix(4.16667,0,0,4.16667,86386.6,12105.9)">
            <path d="M324.9,359.1C328.492,359.1 331.361,351.091 332.781,346.49C337.324,332.17 339.918,317.35 342.357,302.53C344.412,290.31 348.396,262.78 348.396,262.78L414.236,262.78C409.632,293.19 407.607,306.31 405.511,317.26C400.724,342.54 397.865,348.92 396.591,351.96C394.458,357.07 391.638,358.989 389.396,359.01L324.896,359.107L324.9,359.1Z" style="fill:rgb(254,254,254);fill-rule:nonzero;"/>
        </g>
    </g>
</svg>
