<?xml version="1.0" encoding="UTF-8" standalone="no"?>
<!DOCTYPE svg PUBLIC "-//W3C//DTD SVG 1.1//EN" "http://www.w3.org/Graphics/SVG/1.1/DTD/svg11.dtd">
<svg width="100%" height="100%" viewBox="0 0 1800 1800" version="1.1" xmlns="http://www.w3.org/2000/svg" xmlns:xlink="http://www.w3.org/1999/xlink" xml:space="preserve" xmlns:serif="http://www.serif.com/" style="fill-rule:evenodd;clip-rule:evenodd;stroke-linejoin:round;stroke-miterlimit:2;">
    <g transform="matrix(1.44891,0,0,1.44891,-199.416,-80.9655)">
        <circle cx="758.79" cy="677.038" r="621.158" style="fill:white;"/>
    </g>
    <g transform="matrix(3045.4,0,0,3045.4,200.184,2132.38)">
        <path d="M0.425,-0.334C0.422,-0.318 0.421,-0.278 0.422,-0.214L0.037,-0.214C0.039,-0.251 0.039,-0.286 0.036,-0.32C0.035,-0.325 0.034,-0.33 0.033,-0.337C0.031,-0.344 0.03,-0.348 0.03,-0.351C0.028,-0.366 0.032,-0.374 0.042,-0.375C0.05,-0.377 0.055,-0.374 0.056,-0.368C0.057,-0.361 0.055,-0.357 0.049,-0.356C0.043,-0.355 0.041,-0.357 0.042,-0.362C0.042,-0.365 0.043,-0.366 0.045,-0.366C0.049,-0.366 0.051,-0.367 0.052,-0.368C0.05,-0.372 0.047,-0.374 0.043,-0.372C0.039,-0.371 0.036,-0.368 0.036,-0.365C0.034,-0.356 0.037,-0.351 0.045,-0.35C0.044,-0.35 0.048,-0.352 0.059,-0.354L0.097,-0.354C0.161,-0.354 0.199,-0.353 0.211,-0.353L0.211,-0.347C0.19,-0.346 0.163,-0.346 0.129,-0.346C0.084,-0.346 0.057,-0.346 0.047,-0.346C0.046,-0.331 0.046,-0.31 0.046,-0.285C0.046,-0.251 0.046,-0.23 0.046,-0.223C0.093,-0.222 0.154,-0.222 0.229,-0.222L0.413,-0.222C0.413,-0.237 0.413,-0.258 0.413,-0.283L0.413,-0.345C0.395,-0.346 0.368,-0.346 0.331,-0.346C0.294,-0.346 0.266,-0.346 0.249,-0.347L0.249,-0.353C0.262,-0.353 0.299,-0.354 0.362,-0.354L0.4,-0.354C0.401,-0.354 0.403,-0.353 0.406,-0.351C0.409,-0.35 0.411,-0.35 0.413,-0.35C0.418,-0.351 0.422,-0.354 0.423,-0.359C0.424,-0.365 0.423,-0.369 0.417,-0.372C0.416,-0.372 0.414,-0.372 0.412,-0.372C0.409,-0.372 0.408,-0.371 0.407,-0.369C0.407,-0.367 0.409,-0.366 0.412,-0.366C0.415,-0.366 0.417,-0.365 0.417,-0.363C0.418,-0.358 0.416,-0.355 0.41,-0.356C0.403,-0.357 0.401,-0.361 0.404,-0.368C0.406,-0.374 0.41,-0.376 0.417,-0.375C0.425,-0.375 0.429,-0.369 0.429,-0.359C0.429,-0.358 0.427,-0.35 0.425,-0.334ZM0.254,-0.162C0.231,-0.161 0.213,-0.161 0.198,-0.163L0.198,-0.164C0.198,-0.165 0.198,-0.165 0.199,-0.165L0.227,-0.165C0.239,-0.165 0.249,-0.165 0.255,-0.165C0.259,-0.165 0.261,-0.165 0.261,-0.164C0.261,-0.163 0.259,-0.162 0.254,-0.162ZM0.239,-0.15C0.23,-0.151 0.221,-0.151 0.211,-0.148C0.212,-0.153 0.219,-0.155 0.233,-0.154C0.243,-0.154 0.248,-0.152 0.248,-0.148C0.248,-0.149 0.245,-0.149 0.239,-0.15ZM0.178,-0.387C0.179,-0.388 0.18,-0.388 0.179,-0.388L0.196,-0.388C0.205,-0.388 0.21,-0.387 0.211,-0.385C0.205,-0.384 0.194,-0.384 0.178,-0.385L0.178,-0.387ZM0.206,-0.465C0.201,-0.463 0.199,-0.462 0.199,-0.462C0.193,-0.461 0.189,-0.464 0.188,-0.469C0.186,-0.474 0.187,-0.478 0.192,-0.479C0.18,-0.475 0.18,-0.472 0.193,-0.468C0.197,-0.469 0.199,-0.47 0.2,-0.471C0.2,-0.473 0.199,-0.474 0.198,-0.476C0.196,-0.477 0.194,-0.478 0.192,-0.478C0.19,-0.478 0.189,-0.476 0.188,-0.473C0.187,-0.467 0.189,-0.464 0.195,-0.463C0.201,-0.462 0.204,-0.465 0.206,-0.47C0.208,-0.475 0.207,-0.479 0.205,-0.484C0.206,-0.486 0.211,-0.487 0.218,-0.487C0.219,-0.489 0.218,-0.477 0.215,-0.453C0.21,-0.454 0.207,-0.458 0.206,-0.465ZM0.174,-0.531C0.167,-0.542 0.164,-0.554 0.165,-0.567C0.165,-0.582 0.17,-0.595 0.179,-0.606C0.188,-0.617 0.199,-0.624 0.212,-0.628C0.22,-0.63 0.23,-0.63 0.244,-0.628C0.257,-0.627 0.268,-0.62 0.278,-0.609C0.288,-0.597 0.293,-0.585 0.294,-0.572C0.296,-0.551 0.29,-0.534 0.276,-0.52C0.271,-0.514 0.266,-0.51 0.262,-0.509C0.253,-0.506 0.244,-0.507 0.236,-0.512C0.236,-0.514 0.237,-0.515 0.237,-0.517C0.238,-0.518 0.238,-0.519 0.238,-0.521C0.234,-0.522 0.228,-0.523 0.221,-0.521C0.222,-0.522 0.222,-0.519 0.223,-0.512C0.215,-0.508 0.206,-0.506 0.198,-0.508C0.19,-0.51 0.182,-0.518 0.174,-0.531ZM0.207,-0.672C0.209,-0.674 0.211,-0.674 0.213,-0.671C0.216,-0.668 0.215,-0.667 0.21,-0.667C0.215,-0.667 0.216,-0.669 0.212,-0.671C0.209,-0.674 0.207,-0.673 0.207,-0.669C0.206,-0.665 0.208,-0.664 0.211,-0.664C0.215,-0.664 0.217,-0.666 0.218,-0.669L0.218,-0.672C0.218,-0.674 0.217,-0.676 0.215,-0.678C0.22,-0.678 0.222,-0.678 0.221,-0.678C0.22,-0.677 0.219,-0.675 0.218,-0.672C0.219,-0.671 0.219,-0.67 0.218,-0.669C0.218,-0.667 0.218,-0.663 0.218,-0.656C0.219,-0.651 0.218,-0.647 0.218,-0.644C0.214,-0.646 0.212,-0.652 0.212,-0.661C0.213,-0.66 0.214,-0.66 0.215,-0.663C0.212,-0.662 0.21,-0.663 0.208,-0.665C0.206,-0.667 0.205,-0.669 0.207,-0.672ZM0.224,-0.638L0.224,-0.653C0.223,-0.659 0.223,-0.664 0.224,-0.667L0.228,-0.667L0.228,-0.638L0.231,-0.638C0.232,-0.641 0.232,-0.646 0.231,-0.653C0.231,-0.66 0.232,-0.664 0.233,-0.667C0.235,-0.667 0.235,-0.663 0.235,-0.654L0.235,-0.639C0.237,-0.638 0.24,-0.637 0.242,-0.636C0.239,-0.635 0.235,-0.635 0.23,-0.635L0.217,-0.635C0.22,-0.638 0.222,-0.639 0.224,-0.638ZM0.243,-0.678C0.241,-0.675 0.24,-0.673 0.241,-0.672C0.241,-0.675 0.24,-0.677 0.238,-0.678C0.238,-0.678 0.24,-0.678 0.243,-0.678ZM0.251,-0.673C0.254,-0.671 0.254,-0.668 0.251,-0.665C0.249,-0.662 0.246,-0.662 0.243,-0.664C0.243,-0.664 0.244,-0.663 0.245,-0.663C0.246,-0.662 0.247,-0.662 0.247,-0.661C0.246,-0.652 0.245,-0.646 0.242,-0.644C0.241,-0.647 0.241,-0.651 0.241,-0.656C0.241,-0.664 0.241,-0.668 0.241,-0.669C0.241,-0.666 0.243,-0.664 0.247,-0.664C0.251,-0.664 0.252,-0.666 0.252,-0.668C0.252,-0.672 0.251,-0.674 0.247,-0.672C0.246,-0.671 0.245,-0.67 0.246,-0.669C0.246,-0.668 0.247,-0.668 0.249,-0.667C0.248,-0.665 0.247,-0.666 0.245,-0.668C0.244,-0.672 0.246,-0.674 0.251,-0.673ZM0.336,-0.295C0.332,-0.284 0.333,-0.275 0.34,-0.267C0.341,-0.268 0.337,-0.268 0.327,-0.267C0.323,-0.276 0.323,-0.285 0.325,-0.295L0.336,-0.295ZM0.364,-0.302C0.363,-0.302 0.362,-0.303 0.36,-0.305C0.358,-0.307 0.357,-0.308 0.355,-0.308C0.351,-0.309 0.346,-0.307 0.34,-0.302L0.328,-0.302C0.331,-0.313 0.339,-0.318 0.352,-0.318C0.365,-0.318 0.373,-0.313 0.376,-0.302C0.375,-0.302 0.373,-0.302 0.37,-0.302C0.368,-0.301 0.366,-0.301 0.364,-0.302ZM0.372,-0.26C0.369,-0.253 0.362,-0.25 0.352,-0.25C0.342,-0.25 0.335,-0.253 0.332,-0.26C0.337,-0.26 0.343,-0.26 0.352,-0.26L0.372,-0.26ZM0.364,-0.267C0.371,-0.275 0.372,-0.285 0.367,-0.295L0.379,-0.295C0.382,-0.285 0.381,-0.276 0.376,-0.267L0.364,-0.267ZM0.277,-0.25L0.267,-0.25L0.267,-0.26L0.277,-0.26L0.277,-0.25ZM0.299,-0.25C0.299,-0.251 0.298,-0.253 0.297,-0.255C0.296,-0.257 0.295,-0.259 0.295,-0.26L0.307,-0.26C0.307,-0.259 0.308,-0.257 0.31,-0.255C0.311,-0.253 0.312,-0.251 0.312,-0.25L0.299,-0.25ZM0.307,-0.295C0.306,-0.294 0.304,-0.292 0.299,-0.287C0.299,-0.285 0.3,-0.278 0.304,-0.267L0.292,-0.267C0.289,-0.278 0.288,-0.285 0.288,-0.286L0.277,-0.286C0.278,-0.288 0.278,-0.281 0.277,-0.267L0.267,-0.267L0.267,-0.295L0.307,-0.295ZM0.267,-0.302L0.267,-0.319C0.282,-0.319 0.291,-0.319 0.295,-0.318C0.304,-0.316 0.308,-0.311 0.308,-0.302L0.299,-0.302C0.298,-0.302 0.298,-0.304 0.297,-0.305C0.296,-0.306 0.295,-0.307 0.294,-0.308L0.277,-0.308C0.278,-0.308 0.278,-0.306 0.277,-0.302L0.267,-0.302ZM0.09,-0.25L0.079,-0.25L0.079,-0.26L0.09,-0.26L0.09,-0.25ZM0.079,-0.295L0.09,-0.295L0.09,-0.267L0.079,-0.267L0.079,-0.295ZM0.122,-0.302L0.122,-0.307C0.118,-0.306 0.113,-0.304 0.106,-0.301C0.094,-0.306 0.088,-0.308 0.09,-0.307C0.091,-0.307 0.09,-0.306 0.09,-0.302L0.079,-0.302L0.079,-0.319C0.085,-0.319 0.093,-0.317 0.105,-0.313C0.119,-0.317 0.128,-0.319 0.132,-0.319L0.132,-0.302L0.122,-0.302ZM0.132,-0.25L0.122,-0.25L0.122,-0.26L0.132,-0.26L0.132,-0.25ZM0.122,-0.295L0.132,-0.295L0.132,-0.267L0.122,-0.267L0.122,-0.295ZM0.197,-0.263C0.197,-0.263 0.196,-0.259 0.194,-0.25L0.152,-0.25L0.152,-0.26C0.182,-0.263 0.196,-0.264 0.194,-0.263L0.197,-0.263ZM0.189,-0.295L0.189,-0.285L0.177,-0.285C0.171,-0.285 0.167,-0.285 0.165,-0.284C0.165,-0.285 0.164,-0.279 0.163,-0.267L0.152,-0.267L0.152,-0.295L0.189,-0.295ZM0.152,-0.302L0.152,-0.319L0.183,-0.319C0.186,-0.313 0.187,-0.309 0.187,-0.306C0.175,-0.308 0.168,-0.308 0.165,-0.307C0.164,-0.307 0.163,-0.305 0.163,-0.302L0.152,-0.302ZM0.233,-0.25L0.222,-0.25L0.222,-0.295L0.233,-0.295L0.233,-0.25ZM0.254,-0.319L0.254,-0.308L0.233,-0.308C0.234,-0.308 0.234,-0.306 0.233,-0.302L0.222,-0.302L0.222,-0.308L0.201,-0.308L0.201,-0.319L0.254,-0.319ZM0.22,-0.392C0.221,-0.395 0.226,-0.396 0.236,-0.395C0.239,-0.392 0.242,-0.391 0.245,-0.392L0.245,-0.34L0.214,-0.34L0.214,-0.392L0.22,-0.392ZM0.226,-0.414C0.227,-0.414 0.228,-0.416 0.228,-0.421L0.228,-0.449C0.227,-0.461 0.228,-0.47 0.229,-0.477C0.231,-0.476 0.232,-0.474 0.232,-0.471C0.232,-0.47 0.232,-0.468 0.232,-0.466C0.232,-0.464 0.231,-0.463 0.231,-0.462L0.231,-0.42C0.232,-0.416 0.232,-0.414 0.233,-0.414C0.234,-0.414 0.235,-0.416 0.235,-0.421L0.235,-0.462C0.235,-0.471 0.236,-0.476 0.237,-0.477C0.238,-0.476 0.239,-0.474 0.239,-0.47C0.24,-0.464 0.24,-0.455 0.239,-0.443C0.239,-0.43 0.239,-0.421 0.239,-0.415C0.239,-0.414 0.24,-0.414 0.242,-0.413C0.244,-0.412 0.244,-0.411 0.244,-0.41L0.216,-0.41C0.215,-0.411 0.215,-0.412 0.217,-0.413C0.22,-0.415 0.222,-0.416 0.22,-0.415L0.22,-0.477L0.222,-0.477C0.223,-0.47 0.224,-0.46 0.224,-0.445C0.223,-0.431 0.224,-0.42 0.225,-0.414L0.226,-0.414ZM0.052,-0.341C0.067,-0.34 0.092,-0.34 0.127,-0.341C0.16,-0.341 0.185,-0.341 0.203,-0.341C0.208,-0.341 0.21,-0.34 0.211,-0.339C0.211,-0.337 0.21,-0.336 0.208,-0.336L0.205,-0.336C0.204,-0.337 0.203,-0.337 0.203,-0.337C0.187,-0.336 0.162,-0.336 0.13,-0.336C0.096,-0.337 0.071,-0.337 0.056,-0.337C0.056,-0.324 0.055,-0.306 0.055,-0.285C0.056,-0.256 0.056,-0.238 0.056,-0.232C0.1,-0.231 0.158,-0.231 0.229,-0.231C0.324,-0.231 0.382,-0.231 0.403,-0.231C0.404,-0.244 0.404,-0.262 0.404,-0.283L0.404,-0.336C0.386,-0.337 0.362,-0.337 0.331,-0.337C0.295,-0.337 0.27,-0.337 0.256,-0.337C0.251,-0.337 0.249,-0.337 0.249,-0.338C0.249,-0.34 0.25,-0.341 0.252,-0.341C0.253,-0.341 0.253,-0.341 0.254,-0.341L0.256,-0.341C0.274,-0.341 0.299,-0.341 0.332,-0.341C0.367,-0.34 0.392,-0.34 0.408,-0.341L0.408,-0.227L0.051,-0.227L0.051,-0.339C0.051,-0.34 0.051,-0.341 0.052,-0.341ZM0.27,-0.477C0.275,-0.472 0.274,-0.468 0.268,-0.464C0.262,-0.46 0.257,-0.461 0.254,-0.466C0.252,-0.459 0.249,-0.455 0.245,-0.452C0.244,-0.454 0.244,-0.461 0.245,-0.471C0.245,-0.479 0.244,-0.485 0.242,-0.487C0.247,-0.489 0.251,-0.488 0.255,-0.484C0.252,-0.481 0.251,-0.477 0.252,-0.472C0.253,-0.466 0.256,-0.464 0.26,-0.463C0.266,-0.462 0.269,-0.465 0.271,-0.47C0.272,-0.475 0.27,-0.478 0.265,-0.478C0.262,-0.478 0.26,-0.477 0.26,-0.473C0.26,-0.469 0.262,-0.467 0.266,-0.469C0.265,-0.468 0.264,-0.467 0.262,-0.468C0.261,-0.468 0.259,-0.469 0.259,-0.47C0.257,-0.474 0.258,-0.477 0.262,-0.479C0.265,-0.48 0.268,-0.479 0.27,-0.477ZM0.274,-0.388C0.279,-0.388 0.281,-0.387 0.281,-0.386C0.281,-0.385 0.278,-0.385 0.274,-0.384C0.264,-0.384 0.255,-0.384 0.249,-0.385L0.249,-0.388L0.261,-0.388C0.267,-0.388 0.271,-0.388 0.274,-0.388ZM0.436,-0.357C0.436,-0.365 0.434,-0.371 0.43,-0.375C0.426,-0.38 0.42,-0.382 0.414,-0.382C0.401,-0.382 0.395,-0.374 0.397,-0.36L0.309,-0.36L0.309,-0.369C0.307,-0.369 0.303,-0.37 0.295,-0.372C0.29,-0.373 0.285,-0.374 0.281,-0.375C0.284,-0.379 0.285,-0.384 0.284,-0.391C0.282,-0.392 0.276,-0.393 0.267,-0.396C0.259,-0.398 0.254,-0.4 0.25,-0.401C0.25,-0.402 0.25,-0.403 0.251,-0.405C0.253,-0.406 0.253,-0.408 0.253,-0.409C0.253,-0.41 0.253,-0.411 0.251,-0.411C0.25,-0.411 0.249,-0.411 0.249,-0.412C0.25,-0.425 0.253,-0.435 0.258,-0.443C0.26,-0.446 0.263,-0.45 0.268,-0.454C0.272,-0.458 0.275,-0.462 0.276,-0.464C0.281,-0.471 0.281,-0.477 0.277,-0.482C0.277,-0.483 0.275,-0.484 0.272,-0.485C0.269,-0.487 0.268,-0.488 0.268,-0.489C0.267,-0.492 0.268,-0.495 0.271,-0.498C0.274,-0.501 0.275,-0.504 0.274,-0.507C0.273,-0.507 0.277,-0.51 0.286,-0.518C0.285,-0.518 0.284,-0.518 0.283,-0.517C0.281,-0.516 0.28,-0.516 0.28,-0.516C0.278,-0.514 0.285,-0.525 0.3,-0.547C0.305,-0.554 0.307,-0.557 0.307,-0.558C0.307,-0.56 0.307,-0.562 0.307,-0.565C0.307,-0.569 0.307,-0.572 0.307,-0.573C0.306,-0.574 0.305,-0.574 0.303,-0.575C0.301,-0.575 0.299,-0.576 0.299,-0.577C0.296,-0.595 0.285,-0.612 0.266,-0.626C0.269,-0.628 0.27,-0.631 0.27,-0.635C0.269,-0.635 0.268,-0.635 0.267,-0.635C0.265,-0.635 0.264,-0.635 0.264,-0.636C0.26,-0.644 0.258,-0.653 0.257,-0.663C0.257,-0.669 0.257,-0.673 0.256,-0.674C0.255,-0.677 0.253,-0.679 0.249,-0.679C0.251,-0.683 0.252,-0.687 0.252,-0.689C0.247,-0.69 0.242,-0.694 0.236,-0.7L0.222,-0.7C0.221,-0.698 0.216,-0.694 0.208,-0.688C0.207,-0.687 0.207,-0.685 0.208,-0.684C0.209,-0.681 0.209,-0.68 0.209,-0.679C0.208,-0.679 0.206,-0.678 0.204,-0.676C0.202,-0.675 0.202,-0.673 0.202,-0.672C0.202,-0.655 0.2,-0.642 0.195,-0.635C0.192,-0.634 0.19,-0.634 0.19,-0.634C0.189,-0.632 0.19,-0.63 0.191,-0.629C0.192,-0.627 0.193,-0.626 0.193,-0.625C0.175,-0.613 0.164,-0.597 0.16,-0.576C0.159,-0.576 0.158,-0.576 0.156,-0.575C0.155,-0.574 0.153,-0.574 0.152,-0.574L0.152,-0.557C0.156,-0.553 0.16,-0.546 0.166,-0.536C0.171,-0.526 0.175,-0.519 0.179,-0.516C0.175,-0.517 0.173,-0.518 0.173,-0.518C0.18,-0.512 0.184,-0.508 0.185,-0.506C0.185,-0.503 0.186,-0.5 0.189,-0.498C0.192,-0.495 0.193,-0.492 0.192,-0.488C0.186,-0.488 0.182,-0.484 0.181,-0.478C0.179,-0.472 0.18,-0.467 0.184,-0.462C0.185,-0.461 0.188,-0.458 0.192,-0.453C0.197,-0.449 0.2,-0.445 0.202,-0.442C0.206,-0.434 0.209,-0.424 0.21,-0.411L0.208,-0.411C0.207,-0.411 0.206,-0.411 0.206,-0.41C0.206,-0.408 0.206,-0.406 0.208,-0.405C0.209,-0.403 0.209,-0.402 0.209,-0.4C0.2,-0.398 0.188,-0.395 0.175,-0.391C0.174,-0.384 0.175,-0.379 0.178,-0.375C0.176,-0.374 0.171,-0.373 0.164,-0.372C0.158,-0.37 0.153,-0.369 0.15,-0.369C0.149,-0.362 0.149,-0.359 0.149,-0.36L0.062,-0.36C0.064,-0.37 0.061,-0.376 0.052,-0.38C0.044,-0.383 0.037,-0.382 0.031,-0.377C0.025,-0.372 0.023,-0.364 0.024,-0.353L0.029,-0.325C0.032,-0.307 0.032,-0.268 0.031,-0.208L0.109,-0.208C0.141,-0.209 0.167,-0.209 0.187,-0.208C0.186,-0.203 0.186,-0.199 0.189,-0.196C0.192,-0.191 0.194,-0.188 0.194,-0.186C0.194,-0.185 0.194,-0.185 0.192,-0.186C0.191,-0.186 0.191,-0.185 0.191,-0.184C0.191,-0.183 0.192,-0.18 0.194,-0.174C0.195,-0.17 0.196,-0.166 0.195,-0.162C0.196,-0.16 0.198,-0.158 0.202,-0.155C0.205,-0.152 0.207,-0.15 0.208,-0.148L0.208,-0L0.251,-0L0.251,-0.148C0.252,-0.15 0.254,-0.152 0.258,-0.155C0.261,-0.157 0.264,-0.16 0.264,-0.162C0.264,-0.163 0.264,-0.165 0.264,-0.167L0.264,-0.171C0.264,-0.173 0.265,-0.175 0.266,-0.178C0.267,-0.18 0.268,-0.182 0.268,-0.184C0.268,-0.185 0.267,-0.186 0.266,-0.186C0.265,-0.186 0.264,-0.186 0.265,-0.187C0.265,-0.188 0.267,-0.191 0.27,-0.196C0.273,-0.2 0.274,-0.204 0.273,-0.208L0.429,-0.208C0.426,-0.264 0.427,-0.305 0.431,-0.329C0.431,-0.332 0.432,-0.337 0.434,-0.344C0.435,-0.35 0.436,-0.354 0.436,-0.357ZM0.237,-0.344C0.239,-0.344 0.239,-0.347 0.239,-0.353C0.239,-0.37 0.239,-0.38 0.238,-0.383L0.236,-0.383C0.236,-0.383 0.236,-0.383 0.235,-0.382C0.235,-0.382 0.235,-0.382 0.235,-0.381L0.235,-0.352C0.235,-0.352 0.235,-0.351 0.235,-0.35L0.235,-0.347C0.235,-0.345 0.236,-0.344 0.237,-0.344ZM0.23,-0.344C0.232,-0.35 0.232,-0.363 0.231,-0.383L0.228,-0.383L0.228,-0.352C0.228,-0.347 0.228,-0.344 0.229,-0.344L0.23,-0.344ZM0.222,-0.344C0.223,-0.344 0.224,-0.347 0.224,-0.353C0.224,-0.37 0.223,-0.38 0.222,-0.383L0.22,-0.383C0.22,-0.383 0.22,-0.383 0.22,-0.382C0.219,-0.382 0.219,-0.382 0.219,-0.381C0.22,-0.378 0.22,-0.374 0.219,-0.367L0.219,-0.352C0.22,-0.352 0.22,-0.351 0.219,-0.35L0.219,-0.347C0.219,-0.345 0.22,-0.344 0.222,-0.344Z" style="fill-rule:nonzero;"/>
    </g>
</svg>
