<?xml version="1.0" encoding="UTF-8" standalone="no"?>
<!DOCTYPE svg PUBLIC "-//W3C//DTD SVG 1.1//EN" "http://www.w3.org/Graphics/SVG/1.1/DTD/svg11.dtd">
<svg width="100%" height="100%" viewBox="0 0 1356 647" version="1.1" xmlns="http://www.w3.org/2000/svg" xmlns:xlink="http://www.w3.org/1999/xlink" xml:space="preserve" xmlns:serif="http://www.serif.com/" style="fill-rule:evenodd;clip-rule:evenodd;stroke-linejoin:round;stroke-miterlimit:2;">
    <g transform="matrix(1.00514,0,0,0.794942,-179.324,-226.383)">
        <path d="M1526.6,377.301C1526.6,326.237 1493.81,284.779 1453.42,284.779L251.581,284.779C211.196,284.779 178.408,326.237 178.408,377.301L178.408,1005.55C178.408,1056.62 211.196,1098.07 251.581,1098.07L1453.42,1098.07C1493.81,1098.07 1526.6,1056.62 1526.6,1005.55L1526.6,377.301Z" style="fill:white;"/>
    </g>
    <g transform="matrix(3045.4,0,0,3045.4,-17.0557,1204.11)">
        <path d="M0.425,-0.334C0.422,-0.318 0.421,-0.278 0.422,-0.214L0.037,-0.214C0.039,-0.251 0.039,-0.286 0.036,-0.32C0.035,-0.325 0.034,-0.33 0.033,-0.337C0.031,-0.344 0.03,-0.348 0.03,-0.351C0.028,-0.366 0.032,-0.374 0.042,-0.375C0.05,-0.377 0.055,-0.374 0.056,-0.368C0.057,-0.361 0.055,-0.357 0.049,-0.356C0.043,-0.355 0.041,-0.357 0.042,-0.362C0.042,-0.365 0.043,-0.366 0.045,-0.366C0.049,-0.366 0.051,-0.367 0.052,-0.368C0.05,-0.372 0.047,-0.374 0.043,-0.372C0.039,-0.371 0.036,-0.368 0.036,-0.365C0.034,-0.356 0.037,-0.351 0.045,-0.35C0.044,-0.35 0.048,-0.352 0.059,-0.354L0.097,-0.354C0.161,-0.354 0.199,-0.353 0.211,-0.353L0.211,-0.347C0.19,-0.346 0.163,-0.346 0.129,-0.346C0.084,-0.346 0.057,-0.346 0.047,-0.346C0.046,-0.331 0.046,-0.31 0.046,-0.285C0.046,-0.251 0.046,-0.23 0.046,-0.223C0.093,-0.222 0.154,-0.222 0.229,-0.222L0.413,-0.222C0.413,-0.237 0.413,-0.258 0.413,-0.283L0.413,-0.345C0.395,-0.346 0.368,-0.346 0.331,-0.346C0.294,-0.346 0.266,-0.346 0.249,-0.347L0.249,-0.353C0.262,-0.353 0.299,-0.354 0.362,-0.354L0.4,-0.354C0.401,-0.354 0.403,-0.353 0.406,-0.351C0.409,-0.35 0.411,-0.35 0.413,-0.35C0.418,-0.351 0.422,-0.354 0.423,-0.359C0.424,-0.365 0.423,-0.369 0.417,-0.372C0.416,-0.372 0.414,-0.372 0.412,-0.372C0.409,-0.372 0.408,-0.371 0.407,-0.369C0.407,-0.367 0.409,-0.366 0.412,-0.366C0.415,-0.366 0.417,-0.365 0.417,-0.363C0.418,-0.358 0.416,-0.355 0.41,-0.356C0.403,-0.357 0.401,-0.361 0.404,-0.368C0.406,-0.374 0.41,-0.376 0.417,-0.375C0.425,-0.375 0.429,-0.369 0.429,-0.359C0.429,-0.358 0.427,-0.35 0.425,-0.334ZM0.336,-0.295C0.332,-0.284 0.333,-0.275 0.34,-0.267C0.341,-0.268 0.337,-0.268 0.327,-0.267C0.323,-0.276 0.323,-0.285 0.325,-0.295L0.336,-0.295ZM0.364,-0.302C0.363,-0.302 0.362,-0.303 0.36,-0.305C0.358,-0.307 0.357,-0.308 0.355,-0.308C0.351,-0.309 0.346,-0.307 0.34,-0.302L0.328,-0.302C0.331,-0.313 0.339,-0.318 0.352,-0.318C0.365,-0.318 0.373,-0.313 0.376,-0.302C0.375,-0.302 0.373,-0.302 0.37,-0.302C0.368,-0.301 0.366,-0.301 0.364,-0.302ZM0.372,-0.26C0.369,-0.253 0.362,-0.25 0.352,-0.25C0.342,-0.25 0.335,-0.253 0.332,-0.26C0.337,-0.26 0.343,-0.26 0.352,-0.26L0.372,-0.26ZM0.364,-0.267C0.371,-0.275 0.372,-0.285 0.367,-0.295L0.379,-0.295C0.382,-0.285 0.381,-0.276 0.376,-0.267L0.364,-0.267ZM0.277,-0.25L0.267,-0.25L0.267,-0.26L0.277,-0.26L0.277,-0.25ZM0.299,-0.25C0.299,-0.251 0.298,-0.253 0.297,-0.255C0.296,-0.257 0.295,-0.259 0.295,-0.26L0.307,-0.26C0.307,-0.259 0.308,-0.257 0.31,-0.255C0.311,-0.253 0.312,-0.251 0.312,-0.25L0.299,-0.25ZM0.307,-0.295C0.306,-0.294 0.304,-0.292 0.299,-0.287C0.299,-0.285 0.3,-0.278 0.304,-0.267L0.292,-0.267C0.289,-0.278 0.288,-0.285 0.288,-0.286L0.277,-0.286C0.278,-0.288 0.278,-0.281 0.277,-0.267L0.267,-0.267L0.267,-0.295L0.307,-0.295ZM0.267,-0.302L0.267,-0.319C0.282,-0.319 0.291,-0.319 0.295,-0.318C0.304,-0.316 0.308,-0.311 0.308,-0.302L0.299,-0.302C0.298,-0.302 0.298,-0.304 0.297,-0.305C0.296,-0.306 0.295,-0.307 0.294,-0.308L0.277,-0.308C0.278,-0.308 0.278,-0.306 0.277,-0.302L0.267,-0.302ZM0.09,-0.25L0.079,-0.25L0.079,-0.26L0.09,-0.26L0.09,-0.25ZM0.079,-0.295L0.09,-0.295L0.09,-0.267L0.079,-0.267L0.079,-0.295ZM0.122,-0.302L0.122,-0.307C0.118,-0.306 0.113,-0.304 0.106,-0.301C0.094,-0.306 0.088,-0.308 0.09,-0.307C0.091,-0.307 0.09,-0.306 0.09,-0.302L0.079,-0.302L0.079,-0.319C0.085,-0.319 0.093,-0.317 0.105,-0.313C0.119,-0.317 0.128,-0.319 0.132,-0.319L0.132,-0.302L0.122,-0.302ZM0.132,-0.25L0.122,-0.25L0.122,-0.26L0.132,-0.26L0.132,-0.25ZM0.122,-0.295L0.132,-0.295L0.132,-0.267L0.122,-0.267L0.122,-0.295ZM0.197,-0.263C0.197,-0.263 0.196,-0.259 0.194,-0.25L0.152,-0.25L0.152,-0.26C0.182,-0.263 0.196,-0.264 0.194,-0.263L0.197,-0.263ZM0.189,-0.295L0.189,-0.285L0.177,-0.285C0.171,-0.285 0.167,-0.285 0.165,-0.284C0.165,-0.285 0.164,-0.279 0.163,-0.267L0.152,-0.267L0.152,-0.295L0.189,-0.295ZM0.152,-0.302L0.152,-0.319L0.183,-0.319C0.186,-0.313 0.187,-0.309 0.187,-0.306C0.175,-0.308 0.168,-0.308 0.165,-0.307C0.164,-0.307 0.163,-0.305 0.163,-0.302L0.152,-0.302ZM0.233,-0.25L0.222,-0.25L0.222,-0.295L0.233,-0.295L0.233,-0.25ZM0.254,-0.319L0.254,-0.308L0.233,-0.308C0.234,-0.308 0.234,-0.306 0.233,-0.302L0.222,-0.302L0.222,-0.308L0.201,-0.308L0.201,-0.319L0.254,-0.319ZM0.214,-0.34L0.245,-0.34L0.214,-0.34ZM0.052,-0.341C0.067,-0.34 0.092,-0.34 0.127,-0.341C0.16,-0.341 0.185,-0.341 0.203,-0.341C0.208,-0.341 0.21,-0.34 0.211,-0.339C0.211,-0.337 0.21,-0.336 0.208,-0.336L0.205,-0.336C0.204,-0.337 0.203,-0.337 0.203,-0.337C0.187,-0.336 0.162,-0.336 0.13,-0.336C0.096,-0.337 0.071,-0.337 0.056,-0.337C0.056,-0.324 0.055,-0.306 0.055,-0.285C0.056,-0.256 0.056,-0.238 0.056,-0.232C0.1,-0.231 0.158,-0.231 0.229,-0.231C0.324,-0.231 0.382,-0.231 0.403,-0.231C0.404,-0.244 0.404,-0.262 0.404,-0.283L0.404,-0.336C0.386,-0.337 0.362,-0.337 0.331,-0.337C0.295,-0.337 0.27,-0.337 0.256,-0.337C0.251,-0.337 0.249,-0.337 0.249,-0.338C0.249,-0.34 0.25,-0.341 0.252,-0.341C0.253,-0.341 0.253,-0.341 0.254,-0.341L0.256,-0.341C0.274,-0.341 0.299,-0.341 0.332,-0.341C0.367,-0.34 0.392,-0.34 0.408,-0.341L0.408,-0.227L0.051,-0.227L0.051,-0.339C0.051,-0.34 0.051,-0.341 0.052,-0.341ZM0.436,-0.357C0.436,-0.365 0.434,-0.371 0.43,-0.375C0.426,-0.38 0.42,-0.382 0.414,-0.382C0.401,-0.382 0.395,-0.374 0.397,-0.36L0.309,-0.36L0.309,-0.369C0.307,-0.369 0.303,-0.37 0.295,-0.372C0.29,-0.373 0.285,-0.374 0.281,-0.375C0.284,-0.379 0.175,-0.379 0.178,-0.375C0.176,-0.374 0.171,-0.373 0.164,-0.372C0.158,-0.37 0.153,-0.369 0.15,-0.369C0.149,-0.362 0.149,-0.359 0.149,-0.36L0.062,-0.36C0.064,-0.37 0.061,-0.376 0.052,-0.38C0.044,-0.383 0.037,-0.382 0.031,-0.377C0.025,-0.372 0.023,-0.364 0.024,-0.353L0.029,-0.325C0.032,-0.307 0.032,-0.268 0.031,-0.208L0.109,-0.208C0.141,-0.209 0.167,-0.209 0.187,-0.208C0.186,-0.203 0.186,-0.199 0.189,-0.196C0.192,-0.191 0.194,-0.188 0.194,-0.186C0.194,-0.185 0.194,-0.185 0.192,-0.186C0.191,-0.186 0.191,-0.185 0.191,-0.184C0.191,-0.183 0.268,-0.182 0.268,-0.184C0.268,-0.185 0.267,-0.186 0.266,-0.186C0.265,-0.186 0.264,-0.186 0.265,-0.187C0.265,-0.188 0.267,-0.191 0.27,-0.196C0.273,-0.2 0.274,-0.204 0.273,-0.208L0.429,-0.208C0.426,-0.264 0.427,-0.305 0.431,-0.329C0.431,-0.332 0.432,-0.337 0.434,-0.344C0.435,-0.35 0.436,-0.354 0.436,-0.357ZM0.237,-0.344C0.239,-0.344 0.239,-0.347 0.239,-0.353C0.239,-0.37 0.235,-0.374 0.235,-0.367L0.235,-0.352C0.235,-0.352 0.235,-0.351 0.235,-0.35L0.235,-0.347C0.235,-0.345 0.236,-0.344 0.237,-0.344ZM0.23,-0.344C0.232,-0.35 0.228,-0.374 0.228,-0.367L0.228,-0.352C0.228,-0.347 0.228,-0.344 0.229,-0.344L0.23,-0.344ZM0.222,-0.344C0.223,-0.344 0.224,-0.347 0.224,-0.353C0.224,-0.37 0.22,-0.374 0.219,-0.367L0.219,-0.352C0.22,-0.352 0.22,-0.351 0.219,-0.35L0.219,-0.347C0.219,-0.345 0.22,-0.344 0.222,-0.344Z" style="fill-rule:nonzero;"/>
    </g>
</svg>
