<?xml version="1.0" encoding="UTF-8" standalone="no"?>
<!DOCTYPE svg PUBLIC "-//W3C//DTD SVG 1.1//EN" "http://www.w3.org/Graphics/SVG/1.1/DTD/svg11.dtd">
<svg width="100%" height="100%" viewBox="0 0 1800 1800" version="1.1" xmlns="http://www.w3.org/2000/svg" xmlns:xlink="http://www.w3.org/1999/xlink" xml:space="preserve" xmlns:serif="http://www.serif.com/" style="fill-rule:evenodd;clip-rule:evenodd;stroke-linejoin:round;stroke-miterlimit:2;">
    <g id="path60224" transform="matrix(32.098,0,0,-32.098,1762.07,899.936)">
        <path d="M0,0C0,-14.836 -12.025,-26.86 -26.858,-26.86C-41.689,-26.86 -53.715,-14.836 -53.715,0C-53.715,14.833 -41.689,26.856 -26.858,26.856C-12.025,26.856 0,14.833 0,0" style="fill:rgb(245,46,1);fill-rule:nonzero;"/>
    </g>
    <g id="path60228" transform="matrix(32.098,0,0,-32.098,1355.33,1180.76)">
        <path d="M0,0C-1.32,-2.286 -3.453,-3.924 -6.005,-4.61C-7.163,-4.92 -8.346,-5.014 -9.508,-4.904C-7.846,-3.189 -6.639,-1.072 -6.006,1.299C-5.023,4.963 -5.528,8.79 -7.427,12.087C-7.994,13.066 -8.675,13.968 -9.45,14.78C-7.485,14.959 -5.45,14.556 -3.616,13.5C-1.33,12.182 0.304,10.051 0.986,7.502C1.671,4.95 1.318,2.287 0,0M-22.281,-4.577C-24.834,-3.896 -26.967,-2.258 -28.286,0.034C-30.307,3.53 -29.934,7.761 -27.688,10.832C-25.922,4.991 -20.494,0.731 -14.087,0.731C-12.907,0.731 -11.737,0.877 -10.605,1.164C-11.433,-0.832 -12.88,-2.487 -14.785,-3.586C-17.068,-4.91 -19.73,-5.261 -22.281,-4.577M-11.164,9.924C-10.455,8.693 -10.029,7.353 -9.89,5.979C-11.192,5.369 -12.626,5.047 -14.087,5.047C-15.626,5.047 -17.082,5.401 -18.381,6.031C-18.235,7.381 -17.807,8.699 -17.127,9.888C-16.355,11.222 -15.317,12.307 -14.117,13.118C-12.913,12.287 -11.903,11.195 -11.164,9.924M-14.087,24.819C-9.958,24.819 -6.412,22.276 -4.935,18.675C-10.974,20.266 -17.588,17.71 -20.87,12.044C-21.392,11.134 -21.807,10.172 -22.116,9.177C-23.285,10.8 -23.977,12.791 -23.977,14.94C-23.977,20.388 -19.54,24.819 -14.087,24.819M5.158,8.618C4.335,11.691 2.551,14.339 0.062,16.23C-0.594,23.457 -6.688,29.139 -14.087,29.139C-21.443,29.139 -27.509,23.523 -28.225,16.358C-33.913,12.115 -35.659,4.166 -32.028,-2.127C-30.131,-5.414 -27.066,-7.769 -23.398,-8.747C-22.176,-9.075 -20.936,-9.237 -19.704,-9.237C-17.812,-9.237 -15.938,-8.853 -14.182,-8.103C-12.403,-8.877 -10.503,-9.271 -8.584,-9.271C-7.352,-9.271 -6.108,-9.108 -4.887,-8.778C-1.222,-7.797 1.841,-5.445 3.742,-2.158C5.636,1.128 6.139,4.954 5.158,8.618" style="fill:white;fill-rule:nonzero;"/>
    </g>
</svg>
