<?xml version="1.0" encoding="UTF-8" standalone="no"?>
<!DOCTYPE svg PUBLIC "-//W3C//DTD SVG 1.1//EN" "http://www.w3.org/Graphics/SVG/1.1/DTD/svg11.dtd">
<svg width="100%" height="100%" viewBox="0 0 450 243" version="1.1" xmlns="http://www.w3.org/2000/svg" xmlns:xlink="http://www.w3.org/1999/xlink" xml:space="preserve" xmlns:serif="http://www.serif.com/" style="fill-rule:evenodd;clip-rule:evenodd;stroke-linejoin:round;stroke-miterlimit:2;">
    <g id="path102650" transform="matrix(1.10488,0,0,1.10488,-23.5984,-12.7107)">
        <path d="M71.205,175.131L71.163,102.039C71.163,102.039 71.163,98.169 67.328,98.169C63.464,98.169 63.464,102.039 63.464,102.039L63.464,213.343L48.106,213.343L48.106,86.598C48.106,86.598 48.106,67.37 67.328,67.37C86.563,67.37 86.563,86.598 86.563,86.598L86.563,155.86C86.563,155.86 86.563,182.83 113.449,182.83C140.425,182.83 140.425,155.86 140.425,155.86L140.425,86.598C140.425,86.598 140.085,67.37 159.57,67.37C178.882,67.37 178.882,86.598 178.882,86.598L178.882,213.343L163.525,213.343L163.525,102.039C163.525,102.039 163.525,98.169 159.57,98.169C155.825,98.169 155.825,102.039 155.825,102.039L155.825,175.131C155.825,175.131 155.324,217.381 113.449,217.381C71.575,217.381 71.205,175.131 71.205,175.131L71.205,175.131ZM302.007,182.83L302.007,102.039C302.007,102.039 302.007,98.169 298.052,98.169C294.301,98.169 294.301,102.039 294.301,102.039L294.301,213.343L278.901,213.343L278.901,86.598C278.901,86.598 278.532,67.37 298.052,67.37C317.281,67.37 317.281,86.598 317.281,86.598L317.281,155.86C317.281,155.86 317.281,182.83 344.209,182.83C371.138,182.83 371.138,155.86 371.138,155.86L371.138,28.662L386.537,28.662L386.537,182.83C386.537,182.83 386.537,217.381 344.209,217.381C302.007,217.381 302.007,182.83 302.007,182.83ZM186.582,175.13L186.582,86.598C186.582,86.598 186.582,59.753 159.57,59.753C132.725,59.753 132.725,86.598 132.725,86.598L132.725,155.86C132.725,155.86 132.725,175.13 113.449,175.13C94.22,175.13 94.22,155.86 94.22,155.86L94.22,86.598C94.22,86.598 94.22,59.753 67.328,59.753C40.399,59.753 40.399,86.598 40.399,86.598L40.399,213.343L25,213.343L25,67.37C25,67.37 25,25 67.328,25C109.662,25 109.662,67.37 109.662,67.37L109.828,141.039C109.828,141.039 109.662,144.373 113.449,144.373C117.487,144.373 117.361,140.502 117.361,140.502L117.361,67.37C117.361,67.37 117.361,25 159.57,25C201.981,25 201.904,67.37 201.904,67.37L201.981,155.86C201.981,155.86 200.735,182.83 228.874,182.83C257.049,182.83 255.761,155.86 255.761,155.86L255.796,67.37C255.796,67.37 255.796,25 298.052,25C340.338,25 340.338,67.37 340.338,67.37L340.463,140.502C340.463,140.502 340.338,144.373 344.209,144.373C348.038,144.373 348.038,140.502 348.038,140.502L348.038,28.662L363.443,28.662L363.443,155.86C363.443,155.86 363.443,175.13 344.209,175.13C324.939,175.13 324.939,155.86 324.939,155.86L324.939,86.598C324.939,86.598 324.939,59.753 298.052,59.753C271.201,59.753 271.201,86.598 271.201,86.598L271.201,175.13C271.201,175.13 271.201,217.381 228.873,217.381C186.581,217.381 186.581,175.13 186.581,175.13L186.582,175.13ZM394.284,28.662L425,28.662L425,213.343L394.284,213.343L394.284,28.662ZM209.639,156.033L209.639,28.662L225.045,28.662L225.045,140.502C225.045,140.502 224.669,144.373 228.874,144.373C233.114,144.373 232.703,140.502 232.703,140.502L232.703,28.662L248.096,28.662L248.096,155.86C248.096,155.86 249.683,175.131 228.874,175.131C208.1,175.131 209.639,156.033 209.639,156.033Z" style="fill:rgb(230,22,43);fill-rule:nonzero;"/>
    </g>
</svg>
