<?xml version="1.0" encoding="UTF-8" standalone="no"?>
<!DOCTYPE svg PUBLIC "-//W3C//DTD SVG 1.1//EN" "http://www.w3.org/Graphics/SVG/1.1/DTD/svg11.dtd">
<svg width="100%" height="100%" viewBox="0 0 255 209" version="1.1" xmlns="http://www.w3.org/2000/svg" xmlns:xlink="http://www.w3.org/1999/xlink" xml:space="preserve" xmlns:serif="http://www.serif.com/" style="fill-rule:evenodd;clip-rule:evenodd;stroke-linejoin:round;stroke-miterlimit:2;">
    <g transform="matrix(1.33994,0,0,1.0952,-61.9629,-6.5957)">
        <path d="M141.308,7.757C89.97,7.757 48.76,50.135 48.76,101.473C48.76,152.811 89.97,195.189 141.308,195.189C192.646,195.189 233.856,152.811 233.856,101.473C233.856,50.135 192.646,7.757 141.308,7.757ZM141.308,20.541C186.363,20.541 223.408,56.418 223.408,101.473C223.408,146.528 186.363,182.405 141.308,182.405C96.253,182.405 59.208,146.528 59.208,101.473C59.208,56.418 96.253,20.541 141.308,20.541Z" style="fill:rgb(213,30,38);"/>
    </g>
    <g transform="matrix(1.48229,0,0,2.04986,-42.991,-66.306)">
        <path d="M114.9,58.588L135.013,83.512L114.9,108.435L94.788,83.512L114.9,58.588Z" style="fill:rgb(213,30,38);"/>
    </g>
    <g transform="matrix(1.48229,0,0,2.04986,16.7992,-66.306)">
        <path d="M114.9,58.588L135.013,83.512L114.9,108.435L94.788,83.512L114.9,58.588Z" style="fill:rgb(213,30,38);"/>
    </g>
    <g transform="matrix(1.48229,0,0,2.04986,-101.31,-66.306)">
        <path d="M114.9,58.588L135.013,83.512L114.9,108.435L94.788,83.512L114.9,58.588Z" style="fill:rgb(213,30,38);"/>
    </g>
</svg>
