<?xml version="1.0" encoding="UTF-8" standalone="no"?>
<!DOCTYPE svg PUBLIC "-//W3C//DTD SVG 1.1//EN" "http://www.w3.org/Graphics/SVG/1.1/DTD/svg11.dtd">
<svg width="100%" height="100%" viewBox="0 0 280 216" version="1.1" xmlns="http://www.w3.org/2000/svg" xmlns:xlink="http://www.w3.org/1999/xlink" xml:space="preserve" xmlns:serif="http://www.serif.com/" style="fill-rule:evenodd;clip-rule:evenodd;stroke-linecap:round;stroke-linejoin:round;stroke-miterlimit:1.5;">
    <g transform="matrix(1.23696,0,0,0.999311,-40.698,3.17226)">
        <circle cx="144.363" cy="105.014" r="98.719" style="fill:white;"/>
    </g>
    <g transform="matrix(1.23696,0,0,0.999311,-40.698,3.17226)">
        <circle cx="144.363" cy="105.014" r="98.719" style="fill:none;stroke:rgb(219,42,60);stroke-width:9.49px;"/>
    </g>
    <g transform="matrix(1.67677,0,0,2.31881,-54.4677,-84.7612)">
        <path d="M114.9,58.588L135.013,83.512L114.9,108.435L94.788,83.512L114.9,58.588Z" style="fill:rgb(219,42,60);"/>
    </g>
    <g transform="matrix(1.67677,0,0,2.31881,13.1674,-84.7612)">
        <path d="M114.9,58.588L135.013,83.512L114.9,108.435L94.788,83.512L114.9,58.588Z" style="fill:rgb(219,42,60);"/>
    </g>
    <g transform="matrix(1.67677,0,0,2.31881,-120.438,-84.7612)">
        <path d="M114.9,58.588L135.013,83.512L114.9,108.435L94.788,83.512L114.9,58.588Z" style="fill:rgb(219,42,60);"/>
    </g>
</svg>
