<?xml version="1.0" encoding="UTF-8" standalone="no"?>
<!DOCTYPE svg PUBLIC "-//W3C//DTD SVG 1.1//EN" "http://www.w3.org/Graphics/SVG/1.1/DTD/svg11.dtd">
<svg width="100%" height="100%" viewBox="0 0 280 216" version="1.1" xmlns="http://www.w3.org/2000/svg" xmlns:xlink="http://www.w3.org/1999/xlink" xml:space="preserve" xmlns:serif="http://www.serif.com/" style="fill-rule:evenodd;clip-rule:evenodd;stroke-linejoin:round;stroke-miterlimit:2;">
    <g transform="matrix(1.23696,0,0,0.999311,-40.698,3.17226)">
        <path d="M144.363,0.958C87.274,0.958 41.332,47.926 41.332,105.014C41.332,162.103 87.274,209.07 144.363,209.07C201.451,209.07 247.393,162.103 247.393,105.014C247.393,47.926 201.451,0.958 144.363,0.958ZM144.363,11.632C196.245,11.632 238.77,53.132 238.77,105.014C238.77,156.896 196.245,198.396 144.363,198.396C92.481,198.396 49.955,156.896 49.955,105.014C49.955,53.132 92.481,11.632 144.363,11.632Z" style="fill:rgb(255,39,49);"/>
    </g>
    <g transform="matrix(1.67677,0,0,2.31881,-54.4677,-84.7612)">
        <path d="M114.9,58.588L135.013,83.512L114.9,108.435L94.788,83.512L114.9,58.588Z" style="fill:rgb(255,39,49);"/>
    </g>
    <g transform="matrix(1.67677,0,0,2.31881,13.1674,-84.7612)">
        <path d="M114.9,58.588L135.013,83.512L114.9,108.435L94.788,83.512L114.9,58.588Z" style="fill:rgb(255,39,49);"/>
    </g>
    <g transform="matrix(1.67677,0,0,2.31881,-120.438,-84.7612)">
        <path d="M114.9,58.588L135.013,83.512L114.9,108.435L94.788,83.512L114.9,58.588Z" style="fill:rgb(255,39,49);"/>
    </g>
</svg>
