<?xml version="1.0" encoding="UTF-8" standalone="no"?>
<!DOCTYPE svg PUBLIC "-//W3C//DTD SVG 1.1//EN" "http://www.w3.org/Graphics/SVG/1.1/DTD/svg11.dtd">
<svg width="100%" height="100%" viewBox="0 0 1800 1800" version="1.1" xmlns="http://www.w3.org/2000/svg" xmlns:xlink="http://www.w3.org/1999/xlink" xml:space="preserve" xmlns:serif="http://www.serif.com/" style="fill-rule:evenodd;clip-rule:evenodd;stroke-linejoin:round;stroke-miterlimit:2;">
    <g transform="matrix(2.46729,0,0,2.46729,-33425.5,-49345.2)">
        <text x="13615.2px" y="20698px" style="font-family:'HelveticaNeue-Bold', 'Helvetica Neue';font-weight:700;font-size:162.008px;fill:rgb(41,160,246);">MET</text>
        <text x="13966.1px" y="20698px" style="font-family:'HelveticaNeue-Bold', 'Helvetica Neue';font-weight:700;font-size:162.008px;fill:rgb(41,160,246);">R</text>
        <text x="14078.2px" y="20698px" style="font-family:'HelveticaNeue-Bold', 'Helvetica Neue';font-weight:700;font-size:162.008px;fill:rgb(41,160,246);">O</text>
    </g>
    <g transform="matrix(2.56681,0,0,2.56681,-32821.9,-51300.1)">
        <path d="M13137.3,20013.6L13137.2,20013.5L13089.1,20061.7L13089.1,20061.7L12928.9,20222L12977,20270.1L13103.6,20143.6L13103.6,20396.7L12977,20270.2L12928.9,20318.4L13089.1,20478.6L13089.1,20478.7L13137.2,20526.9L13137.3,20526.8L13137.4,20526.9L13185.5,20478.7L13185.5,20478.6L13345.7,20318.4L13297.5,20270.2L13171.7,20396.1L13171.7,20144.2L13297.5,20270.1L13345.7,20222L13185.5,20061.7L13185.5,20061.7L13137.4,20013.5L13137.3,20013.6Z" style="fill:rgb(41,160,246);"/>
    </g>
    <g transform="matrix(1.55403,0,0,1.55403,-19897.7,-30466.9)">
        <path d="M13682.8,20488.8L13682.8,20516.4L13746.5,20479.6L13809.9,20516.2L13809.9,20488.6L13746.6,20452.1L13746.6,20452L13746.5,20452L13746.4,20452L13746.3,20452.1L13682.8,20488.8Z" style="fill:rgb(41,160,246);"/>
    </g>
</svg>
