<?xml version="1.0" encoding="UTF-8" standalone="no"?>
<!DOCTYPE svg PUBLIC "-//W3C//DTD SVG 1.1//EN" "http://www.w3.org/Graphics/SVG/1.1/DTD/svg11.dtd">
<svg width="100%" height="100%" viewBox="0 0 1800 1800" version="1.1" xmlns="http://www.w3.org/2000/svg" xmlns:xlink="http://www.w3.org/1999/xlink" xml:space="preserve" xmlns:serif="http://www.serif.com/" style="fill-rule:evenodd;clip-rule:evenodd;stroke-linejoin:round;stroke-miterlimit:2;">
    <g transform="matrix(1,0,0,1,-7.89129,0)">
        <path d="M1754.09,1481.01L104.207,1481.01L104.207,1770.1L1754.09,1770.1L1754.09,1481.01ZM737.229,1361.01C750.6,1206.77 743.32,1067.95 707.843,960.407C689.055,903.452 663.889,856.346 623.41,829.201C587.068,804.831 539.86,801.22 482.468,812.144C452.426,817.862 428.93,825.863 413.488,842.424C383.846,874.214 382.023,923.044 381.486,980.628C380.493,1087.05 402.124,1216.17 427.156,1361.01L102.322,1361.01C70.507,1169.36 50.633,1002.94 68.319,875.077C81.975,776.354 116.31,695.416 171.64,632.41C228.391,567.787 308.243,519.281 422.583,497.518C636.03,456.891 799.532,521.922 907.891,662.326C1016.25,521.922 1179.75,456.891 1393.2,497.518C1507.54,519.281 1587.39,567.787 1644.14,632.41C1699.47,695.416 1733.81,776.354 1747.46,875.077C1765.15,1002.94 1745.28,1169.36 1713.46,1361.01L1388.63,1361.01C1413.66,1216.17 1435.29,1087.05 1434.3,980.628C1433.76,923.044 1431.94,874.214 1402.3,842.424C1386.85,825.863 1363.36,817.862 1333.32,812.144C1275.92,801.22 1228.71,804.831 1192.37,829.201C1151.89,856.346 1126.73,903.452 1107.94,960.407C1072.46,1067.95 1065.18,1206.77 1078.55,1361.01L737.229,1361.01ZM929.15,29.9C1048.09,29.9 1144.66,126.465 1144.66,245.406C1144.66,364.347 1048.09,460.912 929.15,460.912C810.209,460.912 713.644,364.347 713.644,245.406C713.644,126.465 810.209,29.9 929.15,29.9Z" style="fill:white;"/>
    </g>
</svg>
