<?xml version="1.0" encoding="UTF-8" standalone="no"?>
<!DOCTYPE svg PUBLIC "-//W3C//DTD SVG 1.1//EN" "http://www.w3.org/Graphics/SVG/1.1/DTD/svg11.dtd">
<svg width="100%" height="100%" viewBox="0 0 100 100" version="1.1" xmlns="http://www.w3.org/2000/svg" xmlns:xlink="http://www.w3.org/1999/xlink" xml:space="preserve" xmlns:serif="http://www.serif.com/" style="fill-rule:evenodd;clip-rule:evenodd;stroke-linejoin:round;stroke-miterlimit:2;">
    <g transform="matrix(0.991556,0,0,0.991556,0.420592,0.422201)">
        <g id="Layer-1" serif:id="Layer 1">
            <path id="path2508" d="M45.819,99.89C37.165,99.116 29.254,96.355 22.235,91.659C15.244,86.981 9.289,80.284 5.518,72.857L4.168,70.199L21.552,70.199L23.051,72.029C26.938,76.774 32.86,80.8 38.831,82.756C42.883,84.083 44.688,84.345 49.732,84.341C54.976,84.336 56.544,84.108 60.655,82.755C68.059,80.317 74.451,75.48 78.836,68.995C79.696,67.724 82.038,63.302 82.038,62.95C82.038,62.854 79.481,62.774 76.355,62.774L70.672,62.774L66.673,58.329C64.474,55.885 62.398,53.567 62.06,53.179L61.444,52.473L55.75,57.524C52.618,60.301 50.003,62.574 49.939,62.574C49.875,62.574 47.006,60.308 43.564,57.538L37.305,52.503L36.847,53.014C36.595,53.296 34.505,55.547 32.202,58.018L28.016,62.509L20.062,62.642C15.688,62.714 9.746,62.774 6.858,62.774L1.606,62.774L1.299,61.42C0.693,58.753 0.354,56.405 0.125,53.293C-0.522,44.486 1.355,35.274 5.429,27.265C7.912,22.386 10.821,18.397 14.809,14.406C18.182,11.031 21.319,8.663 25.577,6.279C32.583,2.357 39.906,0.311 47.926,0.033C56.823,-0.274 64.981,1.535 72.585,5.501C85.844,12.417 95.295,24.775 98.471,39.35L98.855,41.108L91.141,41.056L83.428,41.003L82.727,38.914C78.794,27.19 68.344,18.234 55.969,15.981C52.8,15.404 47.362,15.362 44.214,15.89C34.54,17.514 25.833,23.182 20.587,31.271C17.823,35.533 16.163,39.937 15.408,45.016C14.819,48.979 14.422,48.528 18.496,48.528L21.974,48.528L28.99,39.448C32.85,34.454 36.093,30.368 36.198,30.368C36.303,30.368 39.394,33.529 43.067,37.391C46.741,41.254 49.828,44.414 49.927,44.414C50.026,44.414 52.464,41.272 55.346,37.432L60.584,30.45L68.552,39.584L76.52,48.719L87.994,48.724C98.968,48.728 99.473,48.744 99.586,49.099C99.727,49.542 99.393,55.057 99.102,57.106C98.046,64.521 95.094,72.129 90.906,78.225C88.816,81.268 87.559,82.767 84.762,85.557C76.997,93.3 67.125,98.166 56.304,99.584C53.316,99.976 48.387,100.12 45.819,99.89Z" style="fill:rgb(234,15,22);fill-rule:nonzero;"/>
        </g>
    </g>
</svg>
