<?xml version="1.0" encoding="UTF-8" standalone="no"?>
<!DOCTYPE svg PUBLIC "-//W3C//DTD SVG 1.1//EN" "http://www.w3.org/Graphics/SVG/1.1/DTD/svg11.dtd">
<svg width="100%" height="100%" viewBox="0 0 1800 1800" version="1.1" xmlns="http://www.w3.org/2000/svg" xmlns:xlink="http://www.w3.org/1999/xlink" xml:space="preserve" xmlns:serif="http://www.serif.com/" style="fill-rule:evenodd;clip-rule:evenodd;stroke-linejoin:round;stroke-miterlimit:2;">
    <g transform="matrix(8.82264,0,0,8.82264,19.059,19.059)">
        <path d="M119.62,36.26C118.32,35.86 116.98,35.48 115.64,35.16L98.74,66.58C97.7,66.62 96.68,66.7 95.68,66.82L109.42,33.96C108.06,33.76 106.7,33.6 105.32,33.5L93.54,67.16C92.52,67.36 91.54,67.6 90.56,67.88L98.98,33.28C97.6,33.3 96.22,33.36 94.86,33.46L88.52,68.54C87.54,68.9 86.6,69.28 85.68,69.72L88.6,34.22C87.24,34.44 85.9,34.72 84.56,35.04L83.78,70.7C82.88,71.2 82,71.72 81.16,72.32L78.46,36.8C77.16,37.24 75.88,37.72 74.6,38.24L79.4,73.6C78.58,74.22 77.82,74.9 77.06,75.6L68.86,40.94C67.642,41.577 66.448,42.257 65.28,42.98L75.56,77.14C74.86,77.88 74.18,78.68 73.56,79.48L60.04,46.52C58.94,47.34 57.86,48.2 56.82,49.1L72.3,81.22C71.72,82.06 71.2,82.94 70.7,83.84L52.18,53.4C51.22,54.38 50.3,55.4 49.4,56.44L69.7,85.74C69.28,86.66 68.88,87.62 68.52,88.58L45.5,61.42C44.7,62.54 43.94,63.68 43.22,64.86L67.88,90.62C67.6,91.6 67.36,92.6 67.16,93.62L40.14,70.4C39.537,71.63 38.97,72.877 38.44,74.14L66.82,95.74C66.7,96.7 66.62,97.7 66.58,98.68L36.26,80.08C35.86,81.38 35.48,82.72 35.16,84.06L66.58,100.96C66.62,102 66.7,103.02 66.82,104.02L33.96,90.28C33.76,91.62 33.6,93 33.5,94.38L67.16,106.14C67.36,107.16 67.6,108.16 67.88,109.12L33.3,100.7C33.32,102.08 33.38,103.46 33.48,104.82L68.56,111.18C68.92,112.16 69.3,113.1 69.74,114.02L34.24,111.1C34.48,112.46 34.74,113.8 35.06,115.14L70.72,115.94C71.22,116.84 71.76,117.72 72.34,118.56L36.8,121.24C37.24,122.54 37.72,123.84 38.24,125.1L73.6,120.3C74.22,121.1 74.9,121.88 75.6,122.64L40.92,130.84C41.557,132.058 42.237,133.252 42.96,134.42L77.12,124.14C77.86,124.84 78.66,125.52 79.46,126.14L46.5,139.66C47.32,140.76 48.18,141.84 49.06,142.88L81.18,127.4C82.02,127.98 82.9,128.52 83.8,129L53.4,147.52C54.38,148.48 55.4,149.4 56.44,150.3L85.74,130C86.66,130.44 87.62,130.82 88.58,131.18L61.42,154.22C62.54,155.02 63.68,155.78 64.86,156.5L90.62,131.86C91.6,132.14 92.6,132.38 93.6,132.56L70.4,159.56C71.62,160.16 72.88,160.74 74.14,161.26L95.74,132.86C96.7,132.98 97.68,133.06 98.68,133.1L80.08,163.42C81.38,163.82 82.7,164.2 84.04,164.52L100.94,133.1C101.98,133.06 103,132.98 104,132.86L90.26,165.72C91.62,165.92 92.98,166.06 94.36,166.18L106.12,132.52C107.14,132.32 108.12,132.08 109.1,131.8L100.68,166.38C102.06,166.36 103.44,166.3 104.8,166.2L111.16,131.12C112.12,130.76 113.08,130.38 114,129.94L111.1,165.44C112.46,165.2 113.8,164.92 115.14,164.62L115.92,128.96C116.82,128.46 117.7,127.92 118.54,127.36L121.22,162.88C122.52,162.44 123.82,161.96 125.08,161.44L120.28,126.08C121.08,125.44 121.86,124.78 122.62,124.08L130.82,158.74C132.038,158.103 133.232,157.423 134.4,156.7L124.16,122.6C124.86,121.84 125.52,121.06 126.16,120.26L139.68,153.2C140.78,152.38 141.86,151.52 142.9,150.64L127.42,118.52C128,117.68 128.54,116.8 129.02,115.9L147.52,146.32C148.48,145.34 149.4,144.32 150.3,143.28L130,113.98C130.44,113.06 130.82,112.1 131.18,111.14L154.22,138.3C155,137.18 155.76,136.04 156.5,134.86L131.84,109.08C132.12,108.1 132.36,107.1 132.56,106.08L159.56,129.3C160.16,128.08 160.74,126.82 161.28,125.56L132.9,103.96C133.02,103 133.1,102 133.14,101.02L163.46,119.62C163.86,118.3 164.24,117 164.56,115.64L133.14,98.74C133.1,97.7 133.02,96.68 132.9,95.68L165.76,109.42C165.96,108.06 166.1,106.7 166.22,105.32L132.56,93.54C132.36,92.52 132.12,91.52 131.84,90.56L166.44,98.98C166.42,97.6 166.36,96.22 166.26,94.86L131.18,88.5C130.82,87.54 130.44,86.58 130,85.66L165.5,88.56C165.28,87.2 165,85.86 164.68,84.52L129.02,83.72C128.52,82.82 127.98,81.94 127.4,81.1L162.94,78.42C162.5,77.12 162.02,75.82 161.5,74.56L126.14,79.36C125.52,78.54 124.84,77.76 124.14,77.02L158.82,68.82C158.18,67.6 157.5,66.4 156.78,65.22L122.6,75.54C121.86,74.84 121.06,74.18 120.26,73.54L153.22,60.02C152.4,58.92 151.54,57.84 150.64,56.8L118.52,72.28C117.68,71.7 116.8,71.18 115.9,70.68L146.32,52.18C145.34,51.22 144.32,50.3 143.28,49.4L113.98,69.7C113.06,69.26 112.1,68.88 111.14,68.52L138.3,45.5C137.18,44.7 136.04,43.94 134.86,43.22L109.08,67.86C108.1,67.58 107.1,67.34 106.08,67.16L129.3,40.14C128.07,39.537 126.823,38.97 125.56,38.44L103.96,66.82C103,66.7 102.02,66.62 101.02,66.58L119.62,36.26ZM95.1,0L104.62,0L120.66,36.6L124.7,38.08L110.78,0.48L120.18,1.96L130.3,40.62L134.06,42.7L126.18,3.42L135.22,6.36L139.16,46.12L142.56,48.76L140.94,8.72L149.42,13.04L147.1,52.92L150.04,56.06L154.7,16.26L162.4,21.86L153.86,60.88L156.26,64.44L167.1,25.86L173.82,32.6L159.28,69.82L161.1,73.72L177.84,37.3L183.44,45L163.26,79.5L164.44,83.64L186.68,50.28L191,58.76L165.66,89.66L166.2,93.92L193.36,64.46L196.3,73.5L166.44,100.08L166.28,104.38L197.72,79.54L199.2,88.94L165.58,110.5L164.76,114.72L199.7,95.1L199.7,104.62L163.1,120.66L161.62,124.7L199.2,110.78L197.72,120.16L159.06,130.28L156.98,134.04L196.28,126.18L193.34,135.22L153.6,139.18L150.96,142.58L191,140.96L186.68,149.42L146.8,147.1L143.66,150.04L183.46,154.7L177.86,162.4L138.84,153.86L135.26,156.28L173.84,167.1L167.12,173.82L129.9,159.28L126,161.1L162.42,177.84L154.72,183.44L120.2,163.26L116.06,164.44L149.42,186.66L140.94,190.98L110.04,165.66L105.78,166.2L135.24,193.36L126.2,196.3L99.64,166.44L95.34,166.3L120.18,197.74L110.78,199.22L89.2,165.58L84.98,164.76L104.62,199.7L95.1,199.7L79.06,163.1L75.02,161.62L88.94,199.2L79.54,197.72L69.42,159.06L65.66,156.98L73.52,196.26L64.48,193.32L60.54,153.6L57.16,150.96L58.78,191L50.32,186.68L52.64,146.8L49.7,143.66L45.04,183.46L37.34,177.86L45.88,138.84L43.46,135.28L32.6,173.82L25.88,167.1L40.42,129.88L38.6,125.98L21.86,162.4L16.26,154.7L36.44,120.22L35.26,116.08L13.04,149.42L8.72,140.96L34.04,110.04L33.5,105.78L6.36,135.24L3.42,126.2L33.26,99.64L33.4,95.34L1.96,120.16L0.48,110.78L34.12,89.22L34.94,85L0,104.62L0,95.1L36.6,79.06L38.08,75.02L0.48,88.92L1.96,79.52L40.62,69.4L42.7,65.64L3.42,73.52L6.36,64.48L46.1,60.54L48.74,57.14L8.72,58.76L13.04,50.28L52.92,52.62L56.06,49.68L16.28,45L21.88,37.3L60.9,45.84L64.46,43.42L25.88,32.6L32.6,25.88L69.82,40.42L73.72,38.6L37.3,21.86L45,16.26L79.48,36.44L83.62,35.26L50.28,13.04L58.76,8.72L89.66,34.04L93.92,33.52L64.48,6.36L73.52,3.42L100.08,33.26L104.38,33.4L79.54,1.98L88.94,0.5L110.5,34.14L114.72,34.96L95.1,0Z" style="fill:rgb(9,167,223);"/>
    </g>
</svg>
