<?xml version="1.0" encoding="UTF-8" standalone="no"?>
<!DOCTYPE svg PUBLIC "-//W3C//DTD SVG 1.1//EN" "http://www.w3.org/Graphics/SVG/1.1/DTD/svg11.dtd">
<svg width="100%" height="100%" viewBox="0 0 184 184" version="1.1" xmlns="http://www.w3.org/2000/svg" xmlns:xlink="http://www.w3.org/1999/xlink" xml:space="preserve" xmlns:serif="http://www.serif.com/" style="fill-rule:evenodd;clip-rule:evenodd;stroke-linejoin:round;stroke-miterlimit:2;">
    <g transform="matrix(1.12712,0,0,1.12712,69.7951,83.6152)">
        <circle cx="19.655" cy="7.394" r="80.345" style="fill:white;"/>
    </g>
    <g id="polygon39" transform="matrix(9.01369,0,0,9.01369,-1288.4,-18.7414)">
        <path d="M150.169,13.482L151.555,13.482L152.227,15.834L152.941,13.482L154.117,13.482L152.857,16.884L151.471,16.884L150.169,13.482Z" style="fill-rule:nonzero;"/>
    </g>
    <g id="polygon41" transform="matrix(9.01369,0,0,9.01369,-1288.4,-18.7414)">
        <path d="M154.579,13.482L155.923,13.482L156.637,15.834L157.351,13.482L158.527,13.482L157.267,16.884L155.881,16.884L154.579,13.482Z" style="fill-rule:nonzero;"/>
    </g>
    <g id="path43" transform="matrix(9.01369,0,0,9.01369,-1140.34,-155.03)">
        <path d="M143.529,30.87C143.529,30.954 143.529,31.08 143.613,31.206C143.655,31.29 143.739,31.416 143.949,31.416C144.243,31.416 144.369,31.206 144.369,31.038C144.369,30.828 144.159,30.744 143.865,30.66L143.193,30.492C142.983,30.408 142.353,30.24 142.353,29.568C142.353,29.232 142.521,28.938 142.773,28.77C143.067,28.56 143.487,28.476 143.949,28.476C144.705,28.476 145.461,28.686 145.503,29.652L144.327,29.652C144.327,29.526 144.327,29.4 144.285,29.316C144.201,29.19 144.117,29.106 143.907,29.106C143.697,29.106 143.529,29.19 143.529,29.4C143.529,29.61 143.697,29.694 143.865,29.736L144.789,29.988C145.125,30.072 145.587,30.282 145.587,30.912C145.587,32.088 144.243,32.088 143.949,32.088C143.277,32.088 142.269,31.962 142.269,30.87L143.529,30.87Z" style="fill-rule:nonzero;"/>
    </g>
    <g id="path45" transform="matrix(9.01369,0,0,9.01369,-1140.34,-155.03)">
        <path d="M128.282,27.426C128.282,31.962 131.978,35.616 136.514,35.616C137.564,35.616 138.572,35.406 139.58,35.028L138.95,33.558C138.194,33.852 137.354,34.02 136.514,34.02C132.86,34.02 129.878,31.08 129.878,27.426C129.878,23.814 132.86,20.832 136.514,20.832C140.126,20.832 143.109,23.814 143.109,27.426L143.109,27.51L144.705,27.51L144.705,27.426C144.705,22.89 141.009,19.236 136.514,19.236C131.978,19.236 128.282,22.89 128.282,27.426Z" style="fill:rgb(255,102,0);fill-rule:nonzero;"/>
    </g>
</svg>
