<?xml version="1.0" encoding="UTF-8" standalone="no"?>
<!DOCTYPE svg PUBLIC "-//W3C//DTD SVG 1.1//EN" "http://www.w3.org/Graphics/SVG/1.1/DTD/svg11.dtd">
<svg width="100%" height="100%" viewBox="0 0 360 279" version="1.1" xmlns="http://www.w3.org/2000/svg" xmlns:xlink="http://www.w3.org/1999/xlink" xml:space="preserve" xmlns:serif="http://www.serif.com/" style="fill-rule:evenodd;clip-rule:evenodd;stroke-linejoin:round;stroke-miterlimit:2;">
    <path d="M85.361,132.485C85.271,179.698 85.271,226.911 85.361,274.125C85.361,277.087 84.553,277.805 81.681,277.895C67.409,278.613 53.586,276.369 41.11,269.367C19.388,257.16 5.386,238.849 0.808,213.627C0.18,210.306 0,207.075 0,203.753L0,0.09" style="fill:url(#_Linear1);fill-rule:nonzero;"/>
    <path d="M359.037,-1.705L358.947,203.484C358.947,206.805 358.768,210.126 358.139,213.447C353.651,238.939 339.559,257.34 317.837,269.637C305.361,276.638 291.628,278.972 277.266,278.164C274.394,277.984 273.586,277.356 273.586,274.304C273.676,226.732 273.676,179.159 273.586,131.677" style="fill:url(#_Linear2);fill-rule:nonzero;"/>
    <path d="M0,0.09L177.454,278.074L179.518,278.074L359.037,0.09L308.054,0.09C286.781,0.09 267.034,11.04 255.814,29.172L179.518,151.962L103.223,29.082C92.003,11.04 72.256,0.09 50.983,0.09L0,0.09Z" style="fill:rgb(0,169,216);fill-rule:nonzero;"/>
    <defs>
        <linearGradient id="_Linear1" x1="0" y1="0" x2="1" y2="0" gradientUnits="userSpaceOnUse" gradientTransform="matrix(-106.356,184.222,-184.222,-106.356,91.716,53.0118)"><stop offset="0" style="stop-color:white;stop-opacity:1"/><stop offset="0" style="stop-color:rgb(20,61,130);stop-opacity:1"/><stop offset="0.43" style="stop-color:rgb(5,141,194);stop-opacity:1"/><stop offset="1" style="stop-color:rgb(0,169,216);stop-opacity:1"/><stop offset="1" style="stop-color:rgb(238,241,246);stop-opacity:1"/><stop offset="1" style="stop-color:white;stop-opacity:1"/></linearGradient>
        <linearGradient id="_Linear2" x1="0" y1="0" x2="1" y2="0" gradientUnits="userSpaceOnUse" gradientTransform="matrix(107.217,185.712,-185.712,107.217,269.569,51.5397)"><stop offset="0" style="stop-color:white;stop-opacity:1"/><stop offset="0" style="stop-color:rgb(20,61,130);stop-opacity:1"/><stop offset="0.43" style="stop-color:rgb(5,141,194);stop-opacity:1"/><stop offset="1" style="stop-color:rgb(0,169,216);stop-opacity:1"/><stop offset="1" style="stop-color:rgb(238,241,246);stop-opacity:1"/><stop offset="1" style="stop-color:white;stop-opacity:1"/></linearGradient>
    </defs>
</svg>
