<?xml version="1.0" encoding="UTF-8" standalone="no"?>
<!DOCTYPE svg PUBLIC "-//W3C//DTD SVG 1.1//EN" "http://www.w3.org/Graphics/SVG/1.1/DTD/svg11.dtd">
<svg width="100%" height="100%" viewBox="0 0 1800 1800" version="1.1" xmlns="http://www.w3.org/2000/svg" xmlns:xlink="http://www.w3.org/1999/xlink" xml:space="preserve" xmlns:serif="http://www.serif.com/" style="fill-rule:evenodd;clip-rule:evenodd;stroke-linejoin:round;stroke-miterlimit:2;">
    <g transform="matrix(0.793308,0,0,0.793308,-27291.5,-12601.6)">
        <path d="M35963.5,16757.4L35963.5,16560.2L36342.7,16560.2L36342.7,17139.7L36671.1,17139.7L36671.1,17478.5L35961.8,17478.5L35961.8,17272.1L36193.8,17013.8L35963.5,16757.4ZM35960.4,17261.9C35879.3,17391.9 35735,17478.5 35570.7,17478.5C35317.3,17478.5 35111.5,17272.8 35111.5,17019.4C35111.5,16963 35121.7,16909 35140.3,16859L34986.5,16859L34986.5,17478.5L34623.6,17478.5L34623.6,16859L34402.1,16859L34402.1,16560.2L35211.1,16560.2L35211.1,16734C35295.2,16628.1 35425.1,16560.2 35570.7,16560.2C35735,16560.2 35879.3,16646.8 35960.4,16776.8L35960.4,16920.2L35530.8,16920.2C35475.6,16920.2 35430.8,16965.1 35430.8,17020.3C35430.8,17075.5 35475.6,17120.3 35530.8,17120.3L35960.4,17120.3L35960.4,17261.9Z" style="fill:white;"/>
    </g>
</svg>
