<?xml version="1.0" encoding="UTF-8" standalone="no"?>
<!DOCTYPE svg PUBLIC "-//W3C//DTD SVG 1.1//EN" "http://www.w3.org/Graphics/SVG/1.1/DTD/svg11.dtd">
<svg width="100%" height="100%" viewBox="0 0 1800 1800" version="1.1" xmlns="http://www.w3.org/2000/svg" xmlns:xlink="http://www.w3.org/1999/xlink" xml:space="preserve" xmlns:serif="http://www.serif.com/" style="fill-rule:evenodd;clip-rule:evenodd;stroke-linejoin:round;stroke-miterlimit:2;">
    <g transform="matrix(1.53493,0,0,1.53493,-479.64,-474.14)">
        <g id="path5810" transform="matrix(8.94056,0,0,8.94056,-4830.24,-2031.66)">
            <path d="M593.362,368.936L598.357,368.936L598.357,367.406L593.362,367.406L593.362,368.936ZM590.235,370.907L585.24,370.907L585.24,372.593L590.235,372.593L590.235,370.907ZM590.235,367.406L585.24,367.406L585.24,368.936L590.235,368.936L590.235,367.406ZM593.362,372.593L598.357,372.593L598.357,370.907L593.362,370.907L593.362,372.593ZM590.235,365.279L590.235,363.843L580.664,363.843L580.664,361.634L590.235,361.634L590.235,360.042L593.362,360.042L593.362,361.634L602.916,361.634L602.916,363.843L593.362,363.843L593.362,365.279L600.535,365.279C601.021,365.279 601.327,365.61 601.327,366.085L601.327,373.911C601.327,374.378 600.996,374.72 600.535,374.72L597.46,374.72C598.787,376.36 601.168,378.221 602.936,378.662L602.936,381.109C598.86,380.365 594.909,377.452 593.362,374.46L593.362,381.448L590.235,381.448L590.235,374.46C588.693,377.452 584.745,380.365 580.664,381.109L580.664,378.662C582.44,378.221 584.827,376.36 586.134,374.72L583.082,374.72C582.613,374.72 582.285,374.386 582.285,373.922L582.285,366.085C582.285,365.616 582.613,365.279 583.082,365.279L590.235,365.279" style="fill:white;fill-rule:nonzero;"/>
        </g>
        <g id="g5812" transform="matrix(25.2853,0,0,-25.2853,1088.09,1279.28)">
            <path id="path5814" d="M0,0C1.439,-0.27 3.25,-0.654 4.514,-0.984L4.514,0.035C3.508,0.361 1.512,0.877 -0.012,1.187L0,3.402L-1.365,3.402L-1.365,-3.699L0,-3.699L0,0Z" style="fill:white;fill-rule:nonzero;"/>
        </g>
        <g id="g5816" transform="matrix(25.2853,0,0,-25.2853,1374.37,1340.47)">
            <path id="path5818" d="M0,0L-4.262,0L-4.256,4.502L0,4.502L0,0ZM-5.516,-0.615C-5.516,-0.838 -5.336,-1.031 -5.096,-1.031L0.832,-1.031C1.072,-1.031 1.258,-0.838 1.258,-0.615L1.258,5.096C1.258,5.326 1.072,5.52 0.832,5.52L-5.096,5.52C-5.336,5.52 -5.516,5.326 -5.516,5.096L-5.516,-0.615" style="fill:white;fill-rule:nonzero;"/>
        </g>
        <g id="g5820" transform="matrix(25.2853,0,0,-25.2853,795.575,1201.55)">
            <path id="path5822" d="M0,0L-3.385,0L-3.387,0.562L-4.496,0.562L-4.496,0.006L-7.885,0L-7.885,-0.85L0,-0.85L0,0Z" style="fill:white;fill-rule:nonzero;"/>
        </g>
        <g id="g5824" transform="matrix(25.2853,0,0,-25.2853,631.37,1323.24)">
            <path id="path5826" d="M0,0C-0.26,-0.516 -0.861,-1.059 -1.385,-1.209L-1.385,-2.074C0.008,-1.906 0.998,-0.857 1.268,0L0,0Z" style="fill:white;fill-rule:nonzero;"/>
        </g>
        <g id="g5828" transform="matrix(25.2853,0,0,-25.2853,760.464,1323.24)">
            <path id="path5830" d="M0,0L-1.26,0C-0.996,-0.857 -0.012,-1.906 1.389,-2.074L1.389,-1.209C0.877,-1.07 0.27,-0.529 0,0" style="fill:white;fill-rule:nonzero;"/>
        </g>
        <g id="g5832" transform="matrix(25.2853,0,0,-25.2853,643.074,1288.91)">
            <path id="path5834" d="M0,0L-0.002,1.17L4.172,1.17L4.172,0L0,0ZM5.012,-0.803C5.17,-0.803 5.293,-0.693 5.293,-0.527L5.293,1.695C5.293,1.852 5.17,1.98 5.012,1.98L-0.838,1.973C-1.01,1.973 -1.119,1.861 -1.119,1.697L-1.119,-0.525C-1.119,-0.689 -1.01,-0.803 -0.838,-0.803L1.535,-0.803L1.531,-2.629L0.738,-2.629L0.738,-3.523L1.605,-3.523C2.189,-3.523 2.646,-3.527 2.646,-2.641L2.646,-0.807L5.012,-0.803" style="fill:white;fill-rule:nonzero;"/>
        </g>
        <g id="g5836" transform="matrix(25.2853,0,0,-25.2853,945.707,1302.54)">
            <path id="path5838" d="M0,0C0.818,-0.445 1.535,-0.844 2.078,-1.141L2.078,0.176C1.664,0.404 1.16,0.67 0.592,0.965C1.133,1.994 1.494,3.145 1.662,4.328L0.23,4.33C0.076,3.316 -0.201,2.387 -0.592,1.574C-1.771,2.16 -3.072,2.756 -4.148,3.199L-4.148,2.146C-3.207,1.752 -2.148,1.156 -1.125,0.625C-1.889,-0.574 -3.209,-1.553 -4.586,-1.883L-4.59,-2.816C-2.637,-2.619 -1.104,-1.566 0,0" style="fill:white;fill-rule:nonzero;"/>
        </g>
        <g id="path5804" transform="matrix(32.3035,0,0,-32.3035,900.103,964.344)">
            <path d="M0,0C-1.414,0 -2.6,0.365 -2.6,1.562C-2.6,2.678 -1.654,4.363 0,6.189C1.654,4.363 2.596,2.678 2.596,1.562C2.596,0.365 1.414,0 0,0M0,-3.48C4.258,-3.48 6.016,-2.055 6.016,0.094C6.016,2.633 3.482,5.723 1.643,7.639C5.096,10.752 9.572,13.051 11.336,11.289C13.373,9.25 11.381,3.213 6.572,-3.463L12.924,-5.268C18.285,4.322 19.42,13.756 15.699,16.295C12.797,18.27 5.498,14.285 0,9.234C-5.502,14.285 -12.799,18.27 -15.703,16.295C-19.424,13.756 -18.297,4.322 -12.93,-5.268L-6.578,-3.463C-11.387,3.213 -13.377,9.25 -11.332,11.289C-9.574,13.051 -5.098,10.752 -1.646,7.639C-3.48,5.723 -6.025,2.633 -6.025,0.094C-6.025,-2.055 -4.262,-3.48 0,-3.48" style="fill:rgb(0,204,255);fill-rule:nonzero;"/>
        </g>
    </g>
</svg>
