<?xml version="1.0" encoding="UTF-8" standalone="no"?>
<!DOCTYPE svg PUBLIC "-//W3C//DTD SVG 1.1//EN" "http://www.w3.org/Graphics/SVG/1.1/DTD/svg11.dtd">
<svg width="100%" height="100%" viewBox="0 0 500 500" version="1.1" xmlns="http://www.w3.org/2000/svg" xmlns:xlink="http://www.w3.org/1999/xlink" xml:space="preserve" xmlns:serif="http://www.serif.com/" style="fill-rule:evenodd;clip-rule:evenodd;stroke-linejoin:round;stroke-miterlimit:2;">
    <g transform="matrix(0.977595,0,0,0.977595,5.60121,5.60116)">
        <path d="M189.62,237.25L259.21,231.04C336.97,218.89 412.03,194.17 481.3,157.19C515.41,236.29 501.59,332.22 450.31,400.64C446.47,403.86 434,403.24 428.81,403.11C349.86,401.22 235.96,370.13 202.42,290.46C195.47,273.96 191.35,254.93 189.63,237.24L189.62,237.25Z" style="fill:rgb(90,204,110);fill-rule:nonzero;"/>
    </g>
    <g transform="matrix(0.977595,0,0,0.977595,5.60121,5.60116)">
        <path d="M3.26,204.9C4.99,203.15 18.04,210.53 20.97,211.66C62.96,227.86 108.76,235.58 153.75,236.46C155.43,237.63 155.55,259.7 156.08,263.98C159.93,295.26 172.19,329.9 188.74,356.66C224.83,415 286.89,450.83 347.04,480.06C347.06,481.41 329.43,487.55 326.76,488.41C199.84,529.51 61.23,462.37 15.49,337.7C-0.29,294.67 -3.32,250.24 3.26,204.9Z" style="fill:rgb(90,204,110);fill-rule:nonzero;"/>
    </g>
    <g transform="matrix(0.977595,0,0,0.977595,5.60121,5.60116)">
        <path d="M187.11,203.71L189.51,163.73C196.57,108.03 211.03,53.56 231.22,1.31C238.62,0.29 245.89,-0.62 253.41,-0.47C283.53,0.13 319.25,7.7 347.03,19.31C380.82,33.44 411,55.54 435.28,82.78L434.3,86.2C366.33,148.64 280.38,195.09 187.11,203.71Z" style="fill:rgb(90,204,110);fill-rule:nonzero;"/>
    </g>
    <g transform="matrix(0.977595,0,0,0.977595,5.60121,5.60116)">
        <path d="M156.07,206.1C112.26,207 68.25,203.53 25.9,192.41C21.89,191.36 13.29,189.43 10.08,187.93C8.73,187.3 8.08,187.18 8.2,185.44C8.51,180.93 16.02,161.44 18.21,155.98C46.24,86.17 108.54,29.91 181.14,9.72C192.66,6.52 204.43,4.99 215.75,1.96C208.48,22.69 199.43,42.8 191.87,63.42C174.97,109.5 160.09,156.93 156.08,206.1L156.07,206.1Z" style="fill:rgb(90,204,110);fill-rule:nonzero;"/>
    </g>
</svg>
