<?xml version="1.0" encoding="UTF-8" standalone="no"?>
<!DOCTYPE svg PUBLIC "-//W3C//DTD SVG 1.1//EN" "http://www.w3.org/Graphics/SVG/1.1/DTD/svg11.dtd">
<svg width="100%" height="100%" viewBox="0 0 71 44" version="1.1" xmlns="http://www.w3.org/2000/svg" xmlns:xlink="http://www.w3.org/1999/xlink" xml:space="preserve" xmlns:serif="http://www.serif.com/" style="fill-rule:evenodd;clip-rule:evenodd;stroke-linejoin:round;stroke-miterlimit:2;">
    <path d="M10.725,0.659L14.339,10.644L8.129,10.526L14.338,21.89L1.344,22.282L11.575,36.523L22.224,36.578C25.554,39.662 29.593,41.876 35.223,42.137C40.391,42.233 44.9,39.994 48.793,36.704L61.997,36.76L69.733,22.315L56.959,22.177L62.722,10.885L56.67,10.812L60.559,0.64L10.725,0.659Z" style="fill:white;"/>
    <g transform="matrix(1,0,0,1,-20.1333,3.55271e-15)">
        <path d="M49.847,15.768L49.847,13.845L49.282,13.845L47.121,16.703L47.784,17.366C47.94,17.163 48.138,16.957 48.316,16.787C48.758,16.365 49.278,15.998 49.847,15.768ZM64.93,13.845L54.51,13.845L54.51,15.513L55.351,15.513L55.351,25.093C55.967,25.536 56.793,25.494 57.493,25.409L57.493,27.784L55.351,27.784C55.339,28.932 54.947,29.985 53.823,30.455C53.421,30.623 52.853,30.72 52.398,30.681L52.398,31.829L61.813,31.829L61.813,30.681C61.354,30.72 60.78,30.623 60.373,30.455C59.225,29.98 58.83,28.906 58.83,27.729L58.83,15.513L63.102,15.513C64.018,15.513 64.854,15.923 65.548,16.496C65.845,16.741 66.187,17.076 66.429,17.397L67.119,16.733L64.93,13.845ZM60.017,9.209L44.37,9.209L42.209,12.068L42.872,12.73C43.114,12.414 43.455,12.085 43.752,11.845C44.448,11.279 45.284,10.878 46.196,10.878L50.439,10.878L50.439,23.093C50.439,24.262 50.053,25.342 48.911,25.819C48.509,25.987 47.941,26.085 47.486,26.046L47.486,27.193L56.901,27.193L56.901,26.046C56.441,26.085 55.867,25.987 55.461,25.819C54.313,25.344 53.918,24.27 53.918,23.093L53.918,10.878L58.19,10.878C59.106,10.878 59.942,11.288 60.636,11.86C60.933,12.105 61.275,12.44 61.516,12.761L62.207,12.097L60.017,9.209ZM59.422,18.68C61.605,18.983 64.158,19.739 65.537,21.569L66.405,21.085L63.856,18.281C63.792,18.345 63.714,18.406 63.647,18.451C63.423,18.604 63.165,18.691 62.892,18.691C62.45,18.691 61.893,18.565 61.478,18.416C60.8,18.187 60.116,17.977 59.422,17.802L59.422,18.68ZM60.339,29.776C62.617,29.131 64.6,27.926 66.297,26.284L65.573,25.586C63.849,27.155 61.837,28.245 59.535,28.661C59.683,29.133 59.91,29.512 60.339,29.776ZM54.843,17.164C54.731,17.165 54.62,17.167 54.51,17.17L54.51,18.664C54.62,18.652 54.731,18.642 54.843,18.633L54.843,17.164ZM45.639,26.723C44.863,25.819 44.418,24.768 44.358,23.574C44.343,23.219 44.375,22.862 44.454,22.516C44.704,21.41 45.4,20.488 46.256,19.77C47.281,18.91 48.552,18.313 49.822,17.914L49.931,17.879L49.931,20.538C49.09,21.285 48.426,22.286 48.426,23.454C48.426,24.056 48.62,24.636 48.922,25.151L48.966,25.226C48.293,25.585 47.704,25.563 46.978,25.474L46.978,27.701L52.252,27.707C53.069,28.043 53.911,28.297 54.775,28.482C54.575,29.352 54.039,29.933 53.172,30.124C50.521,29.684 47.464,28.847 45.639,26.723ZM42.326,37.309L31.179,37.309L20.133,21.57L33.409,21.57L27.012,10.11L33.462,10.11L29.588,-0L81.913,-0L78.039,10.11L84.49,10.11L78.093,21.57L91.069,21.57L82.514,37.309L69.176,37.309C65.887,41.121 60.652,43.008 55.751,43.008C50.849,43.008 45.615,41.121 42.326,37.309ZM55.751,41.644C60.487,41.644 65.534,39.756 68.531,35.946L81.55,35.946L88.648,22.933L75.771,22.933L82.168,11.473L76.057,11.473L79.931,1.363L31.57,1.363L35.445,11.473L29.333,11.473L35.731,22.933L22.816,22.933L32.031,35.946L42.97,35.946C45.967,39.756 51.014,41.644 55.751,41.644ZM74.667,24.909L69.607,33.969L80.688,33.969L85.692,24.909L74.667,24.909ZM36.892,24.909L41.952,33.969L33.16,33.969L26.68,24.909L36.892,24.909ZM34.305,3.159L45.268,31.569C47.387,37.061 51.586,39.723 55.779,39.712C59.973,39.723 64.172,37.061 66.291,31.569L77.254,3.159L34.305,3.159" style="fill:rgb(218,37,29);"/>
    </g>
</svg>
