<?xml version="1.0" encoding="UTF-8" standalone="no"?>
<!DOCTYPE svg PUBLIC "-//W3C//DTD SVG 1.1//EN" "http://www.w3.org/Graphics/SVG/1.1/DTD/svg11.dtd">
<svg width="100%" height="100%" viewBox="0 0 1800 1800" version="1.1" xmlns="http://www.w3.org/2000/svg" xmlns:xlink="http://www.w3.org/1999/xlink" xml:space="preserve" xmlns:serif="http://www.serif.com/" style="fill-rule:evenodd;clip-rule:evenodd;stroke-linejoin:round;stroke-miterlimit:2;">
    <g id="Capa-1" serif:id="Capa 1" transform="matrix(27.2218,0,0,27.2218,-4820.62,-11060.3)">
        <path id="path4153" d="M210.148,406.911C228.079,406.911 242.607,421.439 242.607,439.363C242.607,457.293 228.079,471.821 210.148,471.821C192.225,471.821 177.69,457.293 177.69,439.363C177.69,421.439 192.225,406.911 210.148,406.911" style="fill:rgb(218,20,79);"/>
        <g id="g4155" transform="matrix(0,6.40511,6.40511,0,-474.764,-3166.99)">
            <g id="g4157">
                <clipPath id="_clip1">
                    <path d="M557.964,106.936C557.964,109.745 560.24,112.021 563.048,112.021C565.857,112.021 568.133,109.745 568.133,106.936C568.133,104.128 565.857,101.851 563.048,101.851C560.24,101.851 557.964,104.128 557.964,106.936"/>
                </clipPath>
                <g clip-path="url(#_clip1)">
                    <path id="path4163" d="M561.912,106.939L561.912,105.851L565.929,105.851L565.929,106.981L563.333,106.981C562.957,106.981 562.658,107.118 562.658,107.546C562.658,108.091 563.066,108.091 563.359,108.091L565.929,108.091L565.929,109.223L563.333,109.223C562.957,109.223 562.658,109.358 562.658,109.787C562.658,110.332 563.066,110.332 563.359,110.332L565.929,110.332L565.929,111.401L563.107,111.401C562.257,111.401 561.813,110.813 561.813,110.057C561.813,109.482 562.182,109.198 562.386,109.055C562.002,108.803 561.813,108.547 561.813,108.008C561.813,107.396 562.145,107.105 562.396,106.957L562.396,106.939L561.912,106.939Z" style="fill:white;"/>
                </g>
            </g>
        </g>
    </g>
</svg>
