<?xml version="1.0" encoding="UTF-8" standalone="no"?>
<!DOCTYPE svg PUBLIC "-//W3C//DTD SVG 1.1//EN" "http://www.w3.org/Graphics/SVG/1.1/DTD/svg11.dtd">
<svg width="100%" height="100%" viewBox="0 0 1800 1800" version="1.1" xmlns="http://www.w3.org/2000/svg" xmlns:xlink="http://www.w3.org/1999/xlink" xml:space="preserve" xmlns:serif="http://www.serif.com/" style="fill-rule:evenodd;clip-rule:evenodd;stroke-linejoin:round;stroke-miterlimit:2;">
    <g id="g3710" transform="matrix(56.8665,-2.68954e-30,-2.68954e-30,-56.8665,15.7323,1029.57)">
        <path id="path3712" d="M0,0C1.239,-7.487 7.754,-13.042 15.352,-13.042C22.983,-13.042 29.572,-7.505 30.793,-0.022C29.23,1.213 27.657,2.729 26.041,2.729C23.719,2.729 21.359,-2.137 19.007,-2.137C17.713,-2.137 16.285,-0.972 15.143,0L0,0Z" style="fill:rgb(0,88,165);fill-rule:nonzero;"/>
    </g>
    <g id="path3700" transform="matrix(56.8665,-2.68954e-30,-2.68954e-30,-56.8665,12.2641,757.348)">
        <path d="M0,0L15.153,0C16.28,-0.968 17.722,-2.121 19.037,-2.121C21.371,-2.121 23.707,2.741 26.059,2.741C27.666,2.741 29.276,1.212 30.828,-0.011C29.607,7.484 23.029,13.019 15.413,13.019C7.792,13.019 1.237,7.484 0,0" style="fill:rgb(0,155,102);fill-rule:nonzero;"/>
    </g>
</svg>
