<?xml version="1.0" encoding="UTF-8" standalone="no"?>
<!DOCTYPE svg PUBLIC "-//W3C//DTD SVG 1.1//EN" "http://www.w3.org/Graphics/SVG/1.1/DTD/svg11.dtd">
<svg width="100%" height="100%" viewBox="0 0 1800 1800" version="1.1" xmlns="http://www.w3.org/2000/svg" xmlns:xlink="http://www.w3.org/1999/xlink" xml:space="preserve" xmlns:serif="http://www.serif.com/" style="fill-rule:evenodd;clip-rule:evenodd;stroke-linejoin:round;stroke-miterlimit:2;">
    <g transform="matrix(0.16917,0,0,0.16917,655.277,407.525)">
        <g transform="matrix(16.7321,0,0,16.7321,-16596.6,-11473.2)">
            <circle cx="1184.25" cy="858.524" r="139.562" style="fill:white;"/>
        </g>
        <g transform="matrix(12.7003,0,0,12.7003,-11821.8,-8011.72)">
            <circle cx="1184.25" cy="858.524" r="139.562" style="fill:rgb(0,70,92);"/>
        </g>
        <g transform="matrix(7.7128,0,0,7.7128,-5915.47,-3729.86)">
            <circle cx="1184.25" cy="858.524" r="139.562" style="fill:rgb(221,226,78);"/>
        </g>
        <g transform="matrix(7.7128,0,0,7.7128,-8600.29,-730.422)">
            <circle cx="1184.25" cy="858.524" r="139.562" style="fill:rgb(221,226,78);"/>
        </g>
        <g transform="matrix(4.74932,0,0,4.74932,-6850.02,3424.88)">
            <circle cx="1184.25" cy="858.524" r="139.562" style="fill:rgb(221,226,78);"/>
        </g>
        <g transform="matrix(7.7128,0,0,-7.7128,-8600.29,6588.18)">
            <circle cx="1184.25" cy="858.524" r="139.562" style="fill:rgb(221,226,78);"/>
        </g>
        <g transform="matrix(4.74932,0,0,-4.74932,-6850.02,2432.88)">
            <circle cx="1184.25" cy="858.524" r="139.562" style="fill:rgb(221,226,78);"/>
        </g>
    </g>
</svg>
